<?xml version="1.0" encoding="UTF-8" standalone="no"?>
<!-- Created with Inkscape (http://www.inkscape.org/) -->

<svg id="svg2" height="1040" width="630" xmlns:dc="http://purl.org/dc/elements/1.1/" xmlns:cc="http://creativecommons.org/ns#" xmlns:rdf="http://www.w3.org/1999/02/22-rdf-syntax-ns#" xmlns:svg="http://www.w3.org/2000/svg" xmlns="http://www.w3.org/2000/svg" xmlns:sodipodi="http://sodipodi.sourceforge.net/DTD/sodipodi-0.dtd" xmlns:inkscape="http://www.inkscape.org/namespaces/inkscape" version="1.1" inkscape:version="0.48.5 r10040" sodipodi:docname="styles.svg" inkscape:export-filename="/home/chlewey/dev/il-font/styles.png" inkscape:export-xdpi="180" inkscape:export-ydpi="180">
  <defs id="defs" />
  <sodipodi:namedview id="base" pagecolor="#ffffff" bordercolor="#666666" borderopacity="1.0" inkscape:pageopacity="0.0" inkscape:pageshadow="2" inkscape:zoom="0.35" inkscape:cx="-432.85714" inkscape:cy="520" inkscape:document-units="px" inkscape:current-layer="layer1" showgrid="false" inkscape:window-width="1855" inkscape:window-height="1056" inkscape:window-x="65" inkscape:window-y="24" inkscape:window-maximized="1" />
  <metadata id="meta">
    <rdf:RDF>
      <cc:Work rdf:about="">
        <dc:format>image/svg+xml</dc:format>
        <dc:type rdf:resource="http://purl.org/dc/dcmitype/StillImage" />
        <dc:title />
      </cc:Work>
    </rdf:RDF>
  </metadata>
  <g id="layer1" inkscape:label="Capa 1" inkscape:groupmode="layer">
    <path id="script-f" d="m 213.8435,727.13773 c -0.29096,0.48491 -0.53344,0.82438 -0.72743,1.01841 -0.29096,0.19393 -1.30938,0.77588 -3.05521,1.74584 -1.74584,0.96986 -3.2977,1.45481 -4.65558,1.45487 -1.45486,-6e-5 -2.18229,-0.33952 -2.1823,-1.01841 1e-5,-0.29103 0.097,-0.67899 0.29097,-1.1639 1.74585,-3.29774 10.71753,-25.65419 26.91506,-67.06942 -3.00674,0.38798 -5.23753,0.58197 -6.69239,0.58195 -1.45488,2e-5 -2.61877,-0.29096 -3.49169,-0.87292 -0.77593,-0.67892 -1.16389,-1.50335 -1.16389,-2.47328 0,-1.06688 1.0669,-1.9883 3.20071,-2.76425 2.23079,-0.87289 3.92813,-1.30935 5.09204,-1.30938 1.16388,3e-5 2.13379,0.38799 2.90972,1.1639 0.77593,0.77595 1.30937,1.16391 1.60036,1.16389 l 0.43647,0 4.21912,-10.76602 c 1.74582,-4.84953 4.41307,-11.15395 8.00177,-18.91329 3.58863,-7.85623 6.83785,-14.11216 9.74761,-18.7678 6.49837,-9.79603 12.99678,-14.69408 19.49523,-14.69417 l 3.4917,0.43646 2.90972,1.01841 c 2.81268,1.64893 4.21906,3.92822 4.21912,6.83788 -6e-5,2.81282 -0.776,5.86804 -2.32778,9.16567 -2.61883,5.62555 -7.95335,12.94838 -16.00356,21.96851 -8.05031,9.02022 -15.8096,16.53703 -23.27789,22.55046 7.95324,-0.67892 13.04528,-1.01839 15.27612,-1.01841 2.32774,2e-5 3.54013,0.291 3.63718,0.87292 -5e-5,0.38799 -0.92147,0.87294 -2.76426,1.45487 -1.84287,0.48497 -9.31119,1.69736 -22.40497,3.63717 -11.54197,29.29133 -17.40993,46.0708 -17.60391,50.33844 -0.097,2.13377 -0.33947,3.63713 -0.72743,4.51009 -0.29097,0.96987 -0.67894,2.03677 -1.1639,3.20071 -0.48495,1.26084 -0.87292,2.18226 -1.16389,2.76425 -0.19398,0.67889 -0.43646,1.40633 -0.72743,2.1823 -0.29098,0.77588 -0.53346,1.30933 -0.72744,1.60035 -0.19398,0.38792 -0.38796,0.77589 -0.58195,1.1639 m 64.15969,-117.26238 c 1.64879,-2.81267 2.47321,-5.47992 2.47328,-8.00177 -7e-5,-2.52169 -0.92149,-3.78258 -2.76425,-3.78266 -3.68573,8e-5 -8.92325,4.75265 -15.71258,14.25771 -3.97668,5.62555 -7.51686,11.20254 -10.62054,16.73098 -6.20747,11.63899 -10.1841,20.12571 -11.92992,25.4602 l -1.16389,2.32779 c 6.78935,-5.04352 14.01519,-12.22086 21.67753,-21.53205 7.66226,-9.3111 13.67571,-17.79783 18.04037,-25.4602" inkscape:connector-curvature="0" />
    <path id="script-g" d="m 310.63282,735.43048 c -0.77593,-6e-5 -1.74585,-0.14555 -2.90974,-0.43646 -4.94655,-1.26094 -7.41982,-3.8797 -7.41983,-7.85629 1e-5,-3.87969 2.57028,-8.77774 7.7108,-14.69417 5.04354,-5.91649 15.76106,-14.30622 32.15259,-25.16922 6.98333,-14.2577 11.83289,-25.55716 14.54868,-33.89843 -5.43155,6.59542 -9.31119,11.15401 -11.63894,13.67576 -8.72924,9.69913 -15.76109,14.54868 -21.09559,14.54868 -1.55187,0 -3.24922,-0.48495 -5.09204,-1.45486 -1.74585,-0.87292 -3.24921,-2.13381 -4.51009,-3.78266 -1.26089,-1.74584 -1.89133,-3.58867 -1.89133,-5.5285 0,-5.14052 3.58867,-10.91149 10.76602,-17.31293 4.2676,-3.87962 8.72919,-7.17732 13.38479,-9.8931 4.65555,-2.71572 8.34121,-4.41306 11.057,-5.09204 2.71571,-0.6789 5.33447,-1.01837 7.85629,-1.01841 2.52172,4e-5 4.75252,0.67898 6.69239,2.03682 1.93977,1.35791 2.90968,2.71579 2.90974,4.07363 -6e-5,0.77596 -0.38802,1.01844 -1.1639,0.72743 -1.06695,-1.8428 -3.44323,-2.76421 -7.12885,-2.76425 -3.58872,4e-5 -7.71084,1.21243 -12.36638,3.63717 -4.55862,2.32782 -8.68074,5.14056 -12.36638,8.43824 -3.68568,3.20073 -6.83789,6.88639 -9.45664,11.05699 -2.52178,4.07365 -3.78267,7.08037 -3.78266,9.02019 -1e-5,3.39469 0.9699,5.09204 2.90974,5.09204 2.71574,0 6.88635,-2.2308 12.51186,-6.6924 8.34121,-6.49839 16.34298,-14.40317 24.00533,-23.71435 1.26083,-1.8428 3.87959,-1.7943 7.85629,0.14549 1.5518,0.77596 2.18224,1.4549 1.89132,2.03681 -1.26094,2.81277 -3.58872,7.71083 -6.98336,14.69417 -3.29775,6.88639 -5.77102,12.07541 -7.41983,15.56709 2.23075,-1.16389 6.01341,-4.07363 11.34797,-8.72921 5.43145,-4.75255 10.18401,-9.50512 14.25771,-14.25771 2.13373,-2.52174 3.20064,-2.90971 3.20071,-1.16389 -7e-5,2.4248 -5.81954,8.82621 -17.45842,19.20426 -6.69244,6.01345 -11.445,9.79611 -14.25771,11.34797 -8.24428,16.97344 -13.77278,27.64246 -16.58549,32.0071 -7.27436,10.76597 -14.4517,16.14898 -21.53205,16.14904 m 26.76957,-42.62764 c -11.63896,8.72919 -19.9802,15.61556 -25.02373,20.65913 -5.04354,5.14049 -7.56531,9.94155 -7.56532,14.40319 1e-5,1.35783 0.43647,2.32774 1.30939,2.90974 0.87292,0.58189 1.79433,0.87287 2.76425,0.87292 0.96991,-5e-5 2.37628,-0.72749 4.21911,-2.1823 1.84283,-1.45492 3.39469,-2.90979 4.65558,-4.36461 1.35787,-1.35792 2.52176,-2.6673 3.49168,-3.92814 0.9699,-1.16394 2.03681,-2.71579 3.20071,-4.65558 1.26087,-1.84287 2.23078,-3.29773 2.90974,-4.3646 0.67892,-1.06694 1.60034,-2.76428 2.76425,-5.09204 1.26086,-2.23082 2.08529,-3.78268 2.47328,-4.65558 0.48493,-0.77595 1.30935,-2.4248 2.47327,-4.94655 1.26086,-2.52179 2.03679,-4.07365 2.32779,-4.65558" inkscape:connector-curvature="0" />
    <g id="sans-sample">
      <path id="sans-a" d="m 85.09125,112.83191 c -3.647924,3.1007 -7.168128,5.28943 -10.560621,6.56619 -3.356084,1.27676 -6.967484,1.91514 -10.834212,1.91514 -6.383813,0 -11.290211,-1.55035 -14.719208,-4.65105 -3.429016,-3.13718 -5.143519,-7.1316 -5.143515,-11.9833 -4e-6,-2.84533 0.638375,-5.435323 1.915138,-7.769989 1.313231,-2.371099 3.009495,-4.267996 5.088797,-5.690698 2.115759,-1.422644 4.486881,-2.498768 7.113372,-3.228376 1.933358,-0.510671 4.851661,-1.003135 8.754919,-1.477393 7.95235,-0.948415 13.807196,-2.079258 17.564557,-3.392531 0.03643,-1.349678 0.05467,-2.20693 0.05472,-2.571758 -4.5e-5,-4.012627 -0.930254,-6.839734 -2.790631,-8.481327 -2.517078,-2.225159 -6.256154,-3.337762 -11.21724,-3.337813 -4.632837,5.1e-5 -8.061844,0.820824 -10.28703,2.462321 -2.188748,1.605115 -3.812054,4.468701 -4.869924,8.590764 l -9.630411,-1.313238 c 0.875486,-4.122062 2.316398,-7.441632 4.322742,-9.95872 2.006323,-2.553464 4.906387,-4.50508 8.700201,-5.854853 3.793775,-1.386136 8.18947,-2.079233 13.187097,-2.079293 4.961084,6e-5 8.99199,0.58372 12.092732,1.750984 3.100653,1.167379 5.380578,2.64477 6.83978,4.432178 1.459101,1.751035 2.480507,3.976242 3.064222,6.675626 0.328255,1.678071 0.49241,4.705811 0.492464,9.083228 l 0,13.132379 c -5.4e-5,9.156199 0.200579,14.956329 0.601901,17.400399 0.43769,2.40761 1.276703,4.72401 2.517039,6.94922 l -10.28703,0 c -1.021453,-2.04281 -1.678072,-4.43217 -1.969857,-7.16809 M 84.270477,90.835176 c -3.574967,1.45918 -8.937349,2.699459 -16.087164,3.72084 -4.049175,0.583686 -6.91276,1.240305 -8.590765,1.969857 -1.678044,0.729599 -2.973041,1.805724 -3.884995,3.228376 -0.911986,1.386211 -1.367971,2.936561 -1.367956,4.651051 -1.5e-5,2.62649 0.984913,4.81522 2.954785,6.56619 2.006316,1.75099 4.92462,2.62648 8.754919,2.62648 3.793768,0 7.168057,-0.82077 10.122875,-2.46233 2.954746,-1.67801 5.125234,-3.95794 6.511472,-6.83978 1.057842,-2.22519 1.586784,-5.508278 1.586829,-9.84928 l 0,-3.611404" inkscape:connector-curvature="0" />
      <path id="sans-e" d="m 177.73837,101.28636 10.17759,1.25852 c -1.60512,5.94606 -4.57815,10.56063 -8.91907,13.84372 -4.34103,3.28309 -9.88581,4.92464 -16.63435,4.92464 -8.49959,0 -15.24817,-2.60824 -20.24575,-7.82471 -4.96113,-5.25294 -7.44169,-12.60342 -7.44168,-22.051454 -1e-5,-9.776288 2.51703,-17.363877 7.55111,-22.76279 5.03407,-5.39881 11.56377,-8.09824 19.58914,-8.0983 7.76995,6e-5 14.11726,2.644772 19.04195,7.934146 4.92458,5.289476 7.3869,12.73115 7.38696,22.325044 -6e-5,0.583689 -0.0183,1.45918 -0.0547,2.626475 l -43.33685,0 c 0.36477,6.383816 2.17047,11.271969 5.41711,14.664489 3.24659,3.39254 7.29574,5.0888 12.14745,5.0888 3.61137,0 6.69382,-0.94844 9.24738,-2.84535 2.55348,-1.89689 4.57805,-4.92463 6.07373,-9.08323 m -32.33849,-15.923009 32.44792,0 c -0.43779,-4.888124 -1.67807,-8.554242 -3.72084,-10.998367 -3.13722,-3.793749 -7.2046,-5.690646 -12.20217,-5.690698 -4.5234,5.2e-5 -8.33543,1.513922 -11.43611,4.541615 -3.06424,3.027786 -4.7605,7.076932 -5.0888,12.14745" inkscape:connector-curvature="0" />
      <path id="sans-f" d="m 234.27144,120 0,-50.450222 -8.7002,0 0,-7.660554 8.7002,0 0,-6.183162 c -1e-5,-3.903166 0.34654,-6.80323 1.03965,-8.700201 0.94843,-2.553442 2.60822,-4.614494 4.97936,-6.183161 2.40758,-1.604988 5.76363,-2.407521 10.06815,-2.407603 2.77237,8.2e-5 5.83658,0.328391 9.19267,0.984928 l -1.47739,8.590765 c -2.04285,-0.364716 -3.97623,-0.54711 -5.80014,-0.547183 -2.99129,7.3e-5 -5.10706,0.638452 -6.34731,1.915139 -1.2403,1.276828 -1.86044,3.666189 -1.86042,7.16809 l 0,5.362388 11.32667,0 0,7.660554 -11.32667,0 0,50.450222 -9.79457,0" inkscape:connector-curvature="0" />
      <path id="sans-g" d="m 298.84809,124.81521 9.57569,1.42267 c 0.40125,2.95478 1.51386,5.10702 3.33782,6.45675 2.44406,1.82393 5.78187,2.7359 10.01343,2.73592 4.55983,-2e-5 8.08003,-0.91199 10.56063,-2.73592 2.48051,-1.82395 4.15854,-4.37747 5.03407,-7.66055 0.51066,-2.00634 0.74778,-6.21964 0.71134,-12.63992 -4.30454,5.07056 -9.66692,7.60584 -16.08716,7.60584 -7.98889,0 -14.17204,-2.88182 -18.54949,-8.64548 -4.37746,-5.76364 -6.56619,-12.676375 -6.56619,-20.738217 0,-5.544748 1.00317,-10.651779 3.00951,-15.321109 2.00632,-4.70572 4.90639,-8.33536 8.7002,-10.888931 3.83026,-2.55346 8.31715,-3.830217 13.46069,-3.830277 6.85798,6e-5 12.51219,2.772448 16.96265,8.317173 l 0,-7.003935 9.08323,0 0,50.231346 c -5e-5,9.04675 -0.93026,15.44878 -2.79063,19.20611 -1.82399,3.79378 -4.7423,6.78504 -8.75492,8.97379 -3.97623,2.18871 -8.88263,3.28307 -14.71921,3.28309 -6.931,-2e-5 -12.53049,-1.56861 -16.7985,-4.70577 -4.26803,-3.10071 -6.32908,-7.78824 -6.18316,-14.06258 m 8.15302,-34.910245 c -2e-5,7.624098 1.51385,13.187115 4.54161,16.689065 3.02772,3.50198 6.82152,5.25296 11.3814,5.25295 4.52334,1e-5 8.31713,-1.73273 11.38139,-5.19823 3.06418,-3.50195 4.59629,-8.973772 4.59634,-16.415475 -5e-5,-7.113335 -1.58688,-12.475718 -4.76049,-16.087164 -3.13722,-3.611355 -6.93101,-5.417055 -11.3814,-5.417106 -4.37748,5.1e-5 -8.09832,1.787512 -11.16252,5.362388 -3.06424,3.538488 -4.59635,8.809674 -4.59633,15.813572" inkscape:connector-curvature="0" />
      <path id="sans-r" d="m 385.42148,120 0,-58.110776 8.86435,0 0,8.809637 c 2.26167,-4.122054 4.34096,-6.839724 6.23788,-8.153018 1.93336,-1.313179 4.04913,-1.969797 6.34732,-1.969857 3.31954,6e-5 6.69383,1.057945 10.12287,3.173658 l -3.39253,9.137947 c -2.40763,-1.422626 -4.81523,-2.133962 -7.22281,-2.134011 -2.15227,4.9e-5 -4.08565,0.656667 -5.80013,1.969856 -1.71453,1.276806 -2.93656,3.064266 -3.66612,5.362388 -1.09438,3.502007 -1.64157,7.33228 -1.64155,11.490832 l 0,30.423344 -9.84928,0" inkscape:connector-curvature="0" />
      <path id="sans-s" d="m 454.32086,102.65432 9.73985,-1.53211 c 0.54717,3.90325 2.06104,6.89451 4.54161,8.97379 2.51702,2.0793 6.01899,3.11894 10.50591,3.11894 4.52334,0 7.87939,-0.91197 10.06815,-2.73591 2.18869,-1.86041 3.28306,-4.0309 3.2831,-6.51148 -4e-5,-2.22519 -0.96673,-3.976168 -2.90007,-5.252947 -1.34975,-0.87547 -4.7058,-1.988073 -10.06816,-3.337813 -7.22283,-1.823915 -12.23866,-3.392503 -15.04751,-4.705769 -2.7724,-1.349686 -4.88817,-3.191865 -6.34732,-5.526543 -1.42268,-2.371087 -2.13402,-4.97932 -2.13401,-7.824709 -10e-6,-2.589952 0.58365,-4.979313 1.75098,-7.16809 1.2038,-2.225157 2.8271,-4.067336 4.86993,-5.526543 1.53209,-1.130787 3.61139,-2.079236 6.23788,-2.845348 2.66293,-0.802476 5.50828,-1.203742 8.53604,-1.203802 4.55983,6e-5 8.55425,0.656678 11.9833,1.969857 3.46545,1.313294 6.01896,3.100755 7.66055,5.362388 1.6415,2.225258 2.77235,5.216519 3.39253,8.973792 l -9.63041,1.313238 c -0.43778,-2.991219 -1.71454,-5.325862 -3.83027,-7.003935 -2.07933,-1.677976 -5.03411,-2.516988 -8.86436,-2.51704 -4.5234,5.2e-5 -7.75177,0.747867 -9.68513,2.243448 -1.93339,1.49568 -2.90008,3.246662 -2.90007,5.252952 -1e-5,1.276801 0.40126,2.425883 1.20381,3.447249 0.80251,1.057926 2.06103,1.933417 3.77555,2.626476 0.98491,0.364826 3.88498,1.203838 8.70021,2.517039 6.96742,1.860454 11.8191,3.392563 14.55505,4.596333 2.77234,1.167352 4.94283,2.881855 6.51147,5.143515 1.56854,2.261711 2.35283,5.070578 2.35288,8.426612 -5e-5,3.28311 -0.96674,6.3838 -2.90006,9.3021 -1.89695,2.88183 -4.6511,5.12528 -8.26246,6.73034 -3.61144,1.56859 -7.69706,2.35289 -12.25688,2.35289 -7.55114,0 -13.31479,-1.56859 -17.29097,-4.70577 -3.93972,-3.13717 -6.45676,-7.78822 -7.55112,-13.95315" inkscape:connector-curvature="0" />
      <path id="sans-t" d="m 566.83074,111.19036 1.42267,8.7002 c -2.77242,0.58366 -5.25298,0.87549 -7.44168,0.8755 -3.57495,-10e-6 -6.34733,-0.56543 -8.31717,-1.69627 -1.96987,-1.13084 -3.35607,-2.60823 -4.15859,-4.43218 -0.80254,-1.86041 -1.20381,-5.7454 -1.2038,-11.65498 l 0,-33.432852 -7.22281,0 0,-7.660554 7.22281,0 0,-14.390898 9.79456,-5.909571 0,20.300469 9.90401,0 0,7.660554 -9.90401,0 0,33.980032 c -2e-5,2.80888 0.16414,4.61458 0.49247,5.4171 0.36477,0.80255 0.93019,1.44093 1.69626,1.91514 0.80252,0.47424 1.93336,0.71135 3.39253,0.71134 1.09434,1e-5 2.53526,-0.12767 4.32275,-0.38303" inkscape:connector-curvature="0" />
      <text id="label-sans" x="30" y="150" style="font-size:36px;font-style:normal;font-weight:normal;text-align:start;line-height:121.00000381%;letter-spacing:0px;word-spacing:0px;text-anchor:start;fill:#000000;fill-opacity:1;stroke:none;font-family:Sans;-inkscape-font-specification:Sans" sodipodi:linespacing="121%" xml:space="preserve"><tspan
         id="span-sans" x="30" y="150" sodipodi:role="line">sans</tspan></text>
    </g>
    <g id="roman-sample">
      <path id="roman-a" d="m 76.380614,251.86979 c -5.789725,4.47573 -9.423679,7.06261 -10.901873,7.76065 -2.217353,1.02655 -4.578397,1.53982 -7.083138,1.53982 -3.900873,0 -7.12421,-1.33451 -9.670023,-4.00352 -2.504768,-2.669 -3.757147,-6.17977 -3.757143,-10.53231 -4e-6,-2.75112 0.61592,-5.13269 1.847775,-7.14473 1.683521,-2.79217 4.598896,-5.42012 8.746136,-7.88384 4.188271,-2.46367 11.127686,-5.46117 20.818266,-8.99251 l 0,-2.21733 c -3.6e-5,-5.6254 -0.903391,-9.4852 -2.71007,-11.57939 -1.765683,-2.09409 -4.352566,-3.14116 -7.760655,-3.14122 -2.586908,6e-5 -4.63999,0.6981 -6.159251,2.09415 -1.560361,1.39614 -2.340532,2.99755 -2.340515,4.80421 l 0.123185,3.57237 c -1.7e-5,1.88888 -0.492757,3.34656 -1.47822,4.37306 -0.944433,1.02658 -2.196813,1.53986 -3.757143,1.53982 -1.519292,4e-5 -2.771672,-0.53377 -3.757143,-1.60141 -0.944425,-1.06756 -1.416634,-2.52525 -1.416627,-4.37307 -7e-6,-3.53125 1.806705,-6.77512 5.42014,-9.73161 3.613411,-2.95638 8.684522,-4.4346 15.213349,-4.43466 5.009491,6e-5 9.115654,0.84182 12.318501,2.52529 2.422596,1.27297 4.208777,3.26446 5.358547,5.97447 0.739065,1.7657 1.108619,5.37913 1.108666,10.84028 l 0,19.15527 c -4.7e-5,5.3791 0.102608,8.68456 0.307962,9.9164 0.205262,1.19079 0.533755,1.9915 0.98548,2.4021 0.492692,0.41063 1.047024,0.61594 1.662998,0.61593 0.656937,1e-5 1.2318,-0.14371 1.72459,-0.43115 0.862243,-0.53379 2.525239,-2.03254 4.988993,-4.49625 l 0,3.44918 c -4.598958,6.15925 -8.992553,9.23887 -13.180796,9.23888 -2.012063,-1e-5 -3.613466,-0.69805 -4.804216,-2.09415 -1.190825,-1.39609 -1.806749,-3.77767 -1.847775,-7.14473 m 0,-4.00351 0,-21.49579 c -6.200341,2.46373 -10.20385,4.20885 -12.010538,5.23537 -3.243893,1.80674 -5.563875,3.69557 -6.959953,5.66651 -1.396112,1.97098 -2.09416,4.12671 -2.094145,6.46721 -1.5e-5,2.95645 0.88281,5.42015 2.648478,7.3911 1.765632,1.9299 3.798183,2.89485 6.097657,2.89485 3.120661,0 7.226823,-2.05308 12.318501,-6.15925" inkscape:connector-curvature="0" />
      <path id="roman-e" d="m 139.23397,224.83068 c -0.0411,8.37661 1.99148,14.94647 6.09766,19.7096 4.10614,4.76317 8.93088,7.14474 14.47424,7.14473 3.69551,1e-5 6.89832,-1.006 9.60843,-3.01803 2.75108,-2.05307 5.05054,-5.54331 6.89836,-10.47073 l 1.90937,1.23185 c -0.86235,5.62547 -3.36711,10.75817 -7.51429,15.39813 -4.14727,4.59891 -9.34156,6.89836 -15.5829,6.89836 -6.7752,0 -12.58542,-2.62795 -17.43068,-7.88384 -4.80422,-5.29694 -7.20633,-12.40061 -7.20632,-21.31101 -1e-5,-9.64945 2.46369,-17.16373 7.3911,-22.54285 4.96844,-5.42009 11.18928,-8.13016 18.66253,-8.13021 6.32346,5e-5 11.51775,2.0942 15.5829,6.28243 4.06505,4.14728 6.09761,9.71113 6.09766,16.69157 l -38.98806,0 m 0,-3.57237 26.11522,0 c -0.20534,-3.61338 -0.63649,-6.1592 -1.29344,-7.63747 -1.02658,-2.2994 -2.56639,-4.10611 -4.61944,-5.42014 -2.01205,-1.31392 -4.12672,-1.9709 -6.34402,-1.97096 -3.40815,6e-5 -6.46724,1.33456 -9.17729,4.00352 -2.66902,2.62799 -4.22936,6.30301 -4.68103,11.02505" inkscape:connector-curvature="0" />
      <path id="roman-f" d="m 233.62271,208.01593 0,37.07868 c -3e-5,5.25591 0.57484,8.5819 1.72459,9.97799 1.51925,1.80672 3.5518,2.71007 6.09766,2.71007 l 5.11218,0 0,2.21733 -33.6911,0 0,-2.21733 2.52529,0 c 1.64246,0 3.14121,-0.41061 4.49625,-1.23185 1.35502,-0.82123 2.27891,-1.92989 2.77166,-3.326 0.53379,-1.39608 0.80069,-4.10615 0.80071,-8.13021 l 0,-37.07868 -10.96347,0 0,-4.43466 10.96347,0 0,-3.69555 c -2e-5,-5.62539 0.90335,-10.38854 2.71007,-14.28947 1.80669,-3.90078 4.55782,-7.04199 8.25339,-9.42365 3.73658,-2.42255 7.92487,-3.63387 12.56488,-3.63396 4.31143,9e-5 8.27387,1.39619 11.88735,4.18829 2.38153,1.84786 3.57231,3.92147 3.57236,6.22085 -5e-5,1.23192 -0.53384,2.40218 -1.6014,3.51077 -1.06766,1.06768 -2.21738,1.60148 -3.44918,1.6014 -0.94447,8e-5 -1.95048,-0.32842 -3.01804,-0.98548 -1.02658,-0.69797 -2.29949,-2.15566 -3.81873,-4.37306 -1.51932,-2.25832 -2.91542,-3.7776 -4.18829,-4.55785 -1.27295,-0.78009 -2.68958,-1.17017 -4.24988,-1.17026 -1.88887,9e-5 -3.49028,0.51336 -4.80422,1.53982 -1.314,0.98556 -2.25842,2.5459 -2.83325,4.68103 -0.57489,2.09422 -0.86232,7.53488 -0.8623,16.32201 l 0,4.06511 14.53583,0 0,4.43466 -14.53583,0" inkscape:connector-curvature="0" />
      <path id="roman-g" d="m 311.99738,239.4281 c -3.44919,-1.6835 -6.09767,-4.02402 -7.94543,-7.02154 -1.84778,-3.03853 -2.77167,-6.38506 -2.77166,-10.03958 -10e-6,-5.58434 2.09413,-10.38855 6.28243,-14.41265 4.22934,-4.02398 9.62894,-6.036 16.19883,-6.03606 5.37905,6e-5 10.03954,1.31403 13.9815,3.94192 l 11.94895,0 c 1.76559,5e-5 2.79213,0.0617 3.07962,0.18478 0.28737,0.0822 0.49268,0.24642 0.61593,0.49274 0.24631,0.3696 0.36949,1.02659 0.36955,1.97096 -6e-5,1.06765 -0.10271,1.80676 -0.30796,2.21733 -0.12325,0.20535 -0.34908,0.3696 -0.67752,0.49274 -0.28749,0.12323 -1.31403,0.18482 -3.07962,0.18477 l -7.32951,0 c 2.2994,2.95649 3.44913,6.73416 3.44918,11.33302 -5e-5,5.25593 -2.01207,9.75218 -6.03607,13.48876 -4.02408,3.73664 -9.42369,5.60494 -16.19882,5.60492 -2.79223,2e-5 -5.64601,-0.4106 -8.56136,-1.23185 -1.80674,1.56036 -3.03859,2.93593 -3.69555,4.1267 -0.61595,1.14974 -0.92391,2.13522 -0.92389,2.95644 -2e-5,0.69806 0.32847,1.37558 0.98548,2.03255 0.69803,0.657 2.03253,1.12921 4.00351,1.41663 1.14971,0.16425 4.02402,0.30797 8.62295,0.43115 8.45867,0.20531 13.94039,0.49274 16.4452,0.86229 3.81869,0.53381 6.85725,1.95044 9.11569,4.24988 2.2994,2.29946 3.44912,5.13271 3.44918,8.49977 -6e-5,4.63996 -2.17632,8.99249 -6.5288,13.05761 -6.40567,5.99498 -14.76171,8.99248 -25.06815,8.99251 -7.92493,-3e-5 -14.61797,-1.78621 -20.07916,-5.35855 -3.07963,-2.0531 -4.61944,-4.18831 -4.61944,-6.40562 0,-0.9855 0.22584,-1.97098 0.67752,-2.95644 0.69804,-1.51929 2.1352,-3.63397 4.31148,-6.34403 0.28742,-0.36956 2.38156,-2.58689 6.28243,-6.65199 -2.13522,-1.27291 -3.6545,-2.4021 -4.55784,-3.38759 -0.86231,-1.02653 -1.29346,-2.17626 -1.29345,-3.44918 -1e-5,-1.43715 0.57486,-3.12067 1.72459,-5.05058 1.19078,-1.92989 3.90085,-4.66049 8.13021,-8.19181 m 10.7171,-34.55339 c -3.03859,5e-5 -5.58441,1.21137 -7.63747,3.63396 -2.0531,2.42268 -3.07964,6.13876 -3.07963,11.14824 -1e-5,6.48778 1.39608,11.51783 4.18829,15.09016 2.13519,2.7101 4.84525,4.06513 8.13022,4.06511 3.12065,2e-5 5.687,-1.17024 7.69906,-3.51077 2.01198,-2.34049 3.01799,-6.01551 3.01803,-11.02506 -4e-5,-6.52877 -1.41667,-11.64094 -4.24988,-15.33654 -2.09418,-2.71001 -4.78372,-4.06505 -8.06862,-4.0651 M 311.38146,260 c -1.92992,2.09414 -3.3876,4.04457 -4.37307,5.85129 -0.98549,1.8067 -1.47823,3.4697 -1.47822,4.98899 -10e-6,1.97095 1.19078,3.69554 3.57237,5.17377 4.10614,2.54581 10.03955,3.81872 17.80023,3.81874 7.39106,-2e-5 12.83173,-1.314 16.32201,-3.94192 3.53125,-2.5869 5.2969,-5.35856 5.29696,-8.31499 -6e-5,-2.13521 -1.04713,-3.65449 -3.14122,-4.55785 -2.13526,-0.90336 -6.3646,-1.43716 -12.68805,-1.6014 C 323.45356,261.17026 316.3499,260.69805 311.38146,260" inkscape:connector-curvature="0" />
      <path id="roman-r" d="m 407.67957,201.91827 0,12.68805 c 4.72207,-8.45865 9.56734,-12.68799 14.53583,-12.68805 2.25836,6e-5 4.12666,0.6981 5.60492,2.09414 1.47818,1.35509 2.21729,2.93597 2.21733,4.74263 -4e-5,1.60145 -0.53384,2.95648 -1.6014,4.0651 -1.06765,1.10871 -2.34056,1.66304 -3.81874,1.663 -1.43719,4e-5 -3.05913,-0.698 -4.86581,-2.09415 -1.76568,-1.43711 -3.07965,-2.15568 -3.94192,-2.15573 -0.73914,5e-5 -1.53984,0.41066 -2.40211,1.23185 -1.8478,1.68357 -3.75716,4.45523 -5.7281,8.31498 l 0,27.03911 c -2e-5,3.1207 0.39007,5.48174 1.17026,7.08314 0.53378,1.10867 1.4782,2.03256 2.83325,2.77166 1.35501,0.73912 3.30544,1.10867 5.85129,1.10867 l 0,2.21733 -28.88688,0 0,-2.21733 c 2.87431,0 5.00951,-0.45168 6.40562,-1.35504 1.02653,-0.65698 1.74511,-1.70405 2.15574,-3.14121 0.20529,-0.69804 0.30795,-2.68953 0.30796,-5.97448 l 0,-21.86533 c -1e-5,-6.56983 -0.14373,-10.47069 -0.43115,-11.70258 -0.24638,-1.27287 -0.73912,-2.19675 -1.47822,-2.77166 -0.69806,-0.57482 -1.58088,-0.86225 -2.64848,-0.8623 -1.27291,5e-5 -2.71007,0.30801 -4.31147,0.92389 l -0.61593,-2.21733 17.06113,-6.89836 2.58688,0" inkscape:connector-curvature="0" />
      <path id="roman-s" d="m 498.55753,201.91827 0,19.21686 -2.03255,0 c -1.56038,-6.03602 -3.5724,-10.14218 -6.03606,-12.3185 -2.42267,-2.17622 -5.52282,-3.26435 -9.30047,-3.2644 -2.87434,5e-5 -5.19432,0.75969 -6.95995,2.27892 -1.76567,1.51933 -2.6485,3.20286 -2.64848,5.05058 -2e-5,2.2995 0.65697,4.27046 1.97096,5.91288 1.27289,1.68357 3.85978,3.46975 7.76065,5.35855 l 8.99251,4.37307 c 8.33548,4.06513 12.50323,9.42368 12.50328,16.07564 -5e-5,5.13272 -1.95047,9.27995 -5.85129,12.44169 -3.85983,3.12069 -8.19183,4.68103 -12.99602,4.68103 -3.4492,0 -7.39112,-0.61593 -11.82576,-1.84778 -1.35505,-0.41061 -2.46371,-0.61592 -3.32599,-0.61592 -0.94443,0 -1.68354,0.5338 -2.21733,1.60141 l -2.03256,0 0,-20.14075 2.03256,0 c 1.14971,5.74864 3.34651,10.08065 6.59039,12.99601 3.24386,2.91539 6.87781,4.37307 10.90188,4.37307 2.83322,0 5.13267,-0.82123 6.89836,-2.4637 1.80668,-1.68352 2.71003,-3.69554 2.71007,-6.03606 -4e-5,-2.83325 -1.00605,-5.21482 -3.01804,-7.14473 -1.97099,-1.92988 -5.93343,-4.37305 -11.88735,-7.32951 -5.95396,-2.95641 -9.85481,-5.62542 -11.70257,-8.00703 -1.84779,-2.34048 -2.77167,-5.29691 -2.77167,-8.86932 0,-4.63992 1.58087,-8.52024 4.74263,-11.64098 3.20279,-3.12063 7.32949,-4.68097 12.38009,-4.68103 2.2173,6e-5 4.90684,0.47227 8.06862,1.41663 2.09411,0.61598 3.4902,0.92394 4.18829,0.92388 0.65695,6e-5 1.17022,-0.14366 1.53981,-0.43114 0.36952,-0.28738 0.80066,-0.92383 1.29344,-1.90937 l 2.03255,0" inkscape:connector-curvature="0" />
      <path id="roman-t" d="m 556.17553,185.04192 0,18.53935 13.18079,0 0,4.31147 -13.18079,0 0,36.58595 c -2e-5,3.6545 0.51325,6.1182 1.53981,7.3911 1.06758,1.27292 2.42261,1.90937 4.06511,1.90937 1.355,0 2.66898,-0.41061 3.94192,-1.23185 1.27288,-0.86229 2.25836,-2.11467 2.95644,-3.75715 l 2.4021,0 c -1.43719,4.02406 -3.46974,7.06262 -6.09765,9.11569 -2.62798,2.01203 -5.33805,3.01804 -8.13022,3.01804 -1.88885,0 -3.73662,-0.51327 -5.54332,-1.53982 -1.80673,-1.0676 -3.14123,-2.56635 -4.00351,-4.49625 -0.86231,-1.97095 -1.29346,-4.98898 -1.29345,-9.0541 l 0,-37.94098 -8.93091,0 0,-2.03255 c 2.25838,-0.9033 4.55784,-2.42258 6.89836,-4.55785 2.38157,-2.1762 4.49624,-4.74256 6.34403,-7.69906 0.94439,-1.56028 2.25837,-4.41406 3.94192,-8.56136 l 1.90936,0" inkscape:connector-curvature="0" />
      <text id="label-roman" x="30" y="290" style="font-size:36px;font-style:normal;font-weight:normal;text-align:start;line-height:121.00000381%;letter-spacing:0px;word-spacing:0px;text-anchor:start;fill:#000000;fill-opacity:1;stroke:none;font-family:Sans;-inkscape-font-specification:Sans" xml:space="preserve" sodipodi:linespacing="121%"><tspan
         id="span-roman" x="30" y="290" sodipodi:role="line">roman</tspan></text>
    </g>
    <g id="italic-sample">
      <path id="italic-a" d="m 98.531321,344.60884 -11.935112,41.49747 -1.346525,5.56971 c -0.122457,0.53046 -0.183663,0.9793 -0.183617,1.34653 -4.6e-5,0.65287 0.203973,1.22412 0.612057,1.71376 0.326384,0.36724 0.734421,0.55086 1.224114,0.55085 0.530401,1e-5 1.224065,-0.32642 2.080993,-0.97929 1.591298,-1.1833 3.713093,-3.63153 6.365393,-7.34468 l 2.080994,1.46893 c -2.815517,4.24361 -5.712584,7.4875 -8.691209,9.73171 -2.978724,2.2034 -5.732978,3.30511 -8.26277,3.30511 -1.754602,0 -3.080724,-0.44885 -3.97837,-1.34653 -0.856916,-0.85688 -1.285356,-2.12179 -1.28532,-3.79475 -3.6e-5,-1.99938 0.448806,-4.63123 1.346525,-7.89554 l 1.28532,-4.59042 c -5.345331,6.97745 -10.262184,11.8535 -14.750574,14.62816 -3.22352,1.99938 -6.385811,2.99908 -9.486883,2.99908 -2.978689,0 -5.549325,-1.22412 -7.711918,-3.67235 -2.162606,-2.48902 -3.243905,-5.89614 -3.243903,-10.22135 -2e-6,-6.48778 1.938176,-13.32241 5.814542,-20.50391 3.917152,-7.22223 8.874809,-12.99596 14.872985,-17.32121 4.692409,-3.42747 9.119617,-5.14122 13.281637,-5.14128 2.488992,6e-5 4.549582,0.65292 6.181776,1.95858 1.672911,1.30578 2.937827,3.46838 3.794753,6.48781 l 2.203405,-6.97745 9.731707,-1.46894 m -21.78923,3.1827 c -2.611477,5e-5 -5.386133,1.22416 -8.323975,3.67234 -4.162012,3.46837 -7.875154,8.60964 -11.139437,15.42384 -3.223515,6.81426 -4.835263,12.97562 -4.835251,18.48412 -1.2e-5,2.77467 0.693652,4.97807 2.080994,6.61021 1.387313,1.59136 2.97866,2.38703 4.774045,2.38703 4.44759,0 9.282836,-3.2847 14.505751,-9.85412 6.977409,-8.73199 10.46613,-17.68842 10.466174,-26.8693 -4.4e-5,-3.46828 -0.673306,-5.97771 -2.019788,-7.52831 -1.346566,-1.55049 -3.182735,-2.32576 -5.508513,-2.32581" inkscape:connector-curvature="0" />
      <path id="italic-e" d="m 133.71882,376.92545 c -0.28564,2.04021 -0.42845,3.73357 -0.42844,5.08007 -1e-5,3.63156 1.28531,6.73264 3.85596,9.30327 2.57062,2.52984 5.69211,3.79476 9.36447,3.79475 2.93785,10e-6 5.75331,-0.59165 8.44639,-1.77496 2.73382,-1.22411 6.77339,-3.89675 12.11873,-8.01795 l 1.28532,1.77497 c -9.67054,9.58889 -18.89219,14.38334 -27.66498,14.38334 -5.95737,0 -10.44578,-1.87698 -13.46525,-5.63093 -3.01949,-3.75394 -4.52923,-7.89552 -4.52922,-12.42475 -1e-5,-6.07975 1.87696,-12.30232 5.63092,-18.66774 3.75394,-6.36535 8.46677,-11.30261 14.13852,-14.81178 5.6717,-3.54988 11.50663,-5.32484 17.50483,-5.3249 4.32515,6e-5 7.52825,0.87734 9.60929,2.63185 2.08094,1.75461 3.12144,3.8356 3.12149,6.24298 -5e-5,3.38676 -1.34658,6.63066 -4.03957,9.7317 -3.54998,4.03961 -8.77286,7.30391 -15.66866,9.79292 -4.57006,1.67298 -10.99665,2.9787 -19.2798,3.91716 m 0.42844,-2.99908 c 6.03894,-0.69364 10.9558,-1.87695 14.75058,-3.54993 5.01883,-2.24418 8.77277,-4.91682 11.26184,-8.01795 2.5298,-3.14185 3.79471,-6.12052 3.79476,-8.93603 -5e-5,-1.71371 -0.5509,-3.10104 -1.65256,-4.16199 -1.06094,-1.06084 -2.59108,-1.59129 -4.59042,-1.59134 -4.16203,5e-5 -8.58923,2.22385 -13.28164,6.67142 -4.65165,4.40685 -8.07917,10.93545 -10.28256,19.58582" inkscape:connector-curvature="0" />
      <path id="italic-f" d="m 255.87963,346.07778 -1.10171,4.03957 -8.93603,0 -6.73262,26.7469 c -2.9787,11.7923 -5.97778,20.91195 -8.99724,27.35894 -4.28441,9.09924 -8.89523,15.38302 -13.83249,18.85136 -3.75394,2.65222 -7.50789,3.97834 -11.26185,3.97837 -2.44821,-3e-5 -4.5292,-0.7345 -6.24298,-2.20341 -1.2649,-1.02011 -1.89736,-2.34624 -1.89738,-3.97837 2e-5,-1.30574 0.53047,-2.44824 1.59135,-3.42752 1.02012,-0.9385 2.28503,-1.40774 3.79475,-1.40773 1.10172,-10e-6 2.04021,0.34682 2.81547,1.0405 0.73448,0.69365 1.10171,1.48932 1.1017,2.38702 1e-5,0.89767 -0.42843,1.73414 -1.28532,2.50944 -0.65285,0.57123 -0.97928,0.99967 -0.97929,1.28532 1e-5,0.36721 0.14283,0.65283 0.42844,0.85688 0.36725,0.2856 0.9385,0.42841 1.71376,0.42844 1.75457,-3e-5 3.61114,-0.55088 5.56972,-1.65256 1.91777,-1.10172 3.63154,-2.75427 5.14127,-4.95766 1.50974,-2.16262 2.93788,-5.30451 4.28439,-9.42568 0.57125,-1.71376 2.10141,-7.36508 4.59043,-16.95398 l 10.64979,-41.43626 -10.64979,0 0.85688,-4.03957 c 3.38671,5e-5 5.75332,-0.22437 7.09986,-0.67326 1.34651,-0.48959 2.57062,-1.38728 3.67234,-2.69306 1.14249,-1.34646 2.61143,-3.83549 4.40682,-7.46709 2.40739,-4.89639 4.71281,-8.69114 6.91624,-11.38426 3.01945,-3.63146 6.18174,-6.34491 9.48688,-8.14036 3.34587,-1.83608 6.48776,-2.75417 9.42568,-2.75426 3.10104,9e-5 5.59007,0.79576 7.4671,2.38703 1.87691,1.55062 2.8154,3.24398 2.81546,5.08007 -6e-5,1.42821 -0.4693,2.63192 -1.40773,3.61114 -0.93855,0.97936 -2.14226,1.46901 -3.61114,1.46893 -1.26497,8e-5 -2.30547,-0.36716 -3.12149,-1.1017 -0.77532,-0.73439 -1.16296,-1.61167 -1.16291,-2.63184 -5e-5,-0.65279 0.26518,-1.44846 0.79568,-2.38703 0.53039,-0.97921 0.79562,-1.63207 0.79567,-1.95858 -5e-5,-0.57117 -0.18367,-0.99961 -0.55085,-1.28532 -0.5305,-0.40795 -1.30577,-0.61197 -2.32582,-0.61206 -2.57068,9e-5 -4.8761,0.81616 -6.91624,2.44823 -2.7339,2.16268 -5.18212,5.5494 -7.34469,10.16015 -1.10173,2.40749 -3.12152,8.38524 -6.05936,17.93327 l 8.99724,0" inkscape:connector-curvature="0" />
      <path id="italic-g" d="m 370.63452,348.40359 -1.77496,6.3654 -10.22135,0 c 0.77521,2.20345 1.16285,4.26404 1.1629,6.18177 -5e-5,5.38614 -2.28506,10.18058 -6.85503,14.38334 -4.61088,4.20281 -10.93546,6.52863 -18.97377,6.97745 -4.32523,1.30574 -7.56913,2.85628 -9.73171,4.65164 -0.81609,0.65287 -1.22413,1.32613 -1.22411,2.01978 -2e-5,0.81609 0.36721,1.57096 1.1017,2.26461 0.73445,0.65287 2.59102,1.32614 5.56972,2.01979 l 11.8739,2.75426 c 6.56937,1.55055 10.91497,3.38672 13.03682,5.50851 2.08094,2.1626 3.12144,4.65163 3.12149,7.4671 -5e-5,3.3459 -1.24457,6.40618 -3.73355,9.18085 -2.44827,2.77464 -6.0594,4.93724 -10.83341,6.48781 -4.73327,1.59132 -9.97655,2.38699 -15.72986,2.38702 -5.05969,-3e-5 -9.67051,-0.61208 -13.83249,-1.83617 -4.16199,-1.18334 -7.14067,-2.79508 -8.93603,-4.83525 -1.79537,-2.04021 -2.69305,-4.1416 -2.69305,-6.30419 0,-1.75457 0.59165,-3.59074 1.77496,-5.50851 1.14251,-1.87698 2.59104,-3.42753 4.34561,-4.65164 1.1017,-0.77527 4.22318,-2.61144 9.36447,-5.50851 -1.87699,-1.46893 -2.81547,-3.08068 -2.81546,-4.83525 -10e-6,-1.63214 0.81606,-3.3663 2.44822,-5.20248 1.67295,-1.83616 5.18207,-3.85595 10.52739,-6.05937 -4.48844,-0.85686 -8.05877,-2.73383 -10.711,-5.63092 -2.61145,-2.89705 -3.91717,-6.12054 -3.91717,-9.6705 0,-5.7941 2.52983,-10.97618 7.58951,-15.54625 5.10045,-4.56997 11.87388,-6.85498 20.32029,-6.85504 3.06025,6e-5 5.56968,0.30609 7.5283,0.91809 1.95854,0.61211 3.85592,1.571 5.69213,2.87666 l 16.52554,0 m -21.23838,9.6093 c -4e-5,-3.26426 -0.91812,-5.8349 -2.75425,-7.71192 -1.79541,-1.87692 -4.16203,-2.81541 -7.09986,-2.81546 -4.61086,5e-5 -8.42601,2.32587 -11.44547,6.97745 -2.9787,4.61087 -4.46803,9.42571 -4.46802,14.44454 -10e-6,3.14192 0.95887,5.71256 2.87667,7.71192 1.91776,1.99941 4.24357,2.9991 6.97745,2.99908 2.16257,2e-5 4.24357,-0.59163 6.24298,-1.77496 2.04016,-1.18329 3.75392,-2.81544 5.14128,-4.89646 1.38729,-2.08096 2.48899,-4.73321 3.30511,-7.95674 0.81603,-3.22346 1.22407,-5.54928 1.22411,-6.97745 M 320.07861,400 c -3.30512,1.50974 -5.81455,3.44792 -7.5283,5.81454 -1.67296,2.36661 -2.50944,4.69243 -2.50943,6.97745 -1e-5,2.69304 1.22411,4.91684 3.67234,6.67142 3.50912,2.52982 8.65039,3.79473 15.42384,3.79476 5.83491,-3e-5 10.81297,-0.99972 14.93419,-2.99908 4.16194,-1.9586 6.24294,-4.50884 6.24298,-7.65072 -4e-5,-1.59136 -0.77532,-3.10109 -2.32582,-4.52922 -1.50978,-1.42814 -4.46805,-2.59104 -8.87482,-3.48872 -2.40746,-0.48965 -8.75244,-2.01979 -19.03498,-4.59043" inkscape:connector-curvature="0" />
      <path id="italic-r" d="m 398.78336,348.03636 21.11597,-3.42752 -8.81362,29.74597 c 7.14064,-12.2003 13.62844,-20.72828 19.46341,-25.58398 3.30507,-2.77461 5.99812,-4.16193 8.07915,-4.16199 1.34648,6e-5 2.40738,0.40809 3.1827,1.22412 0.77522,0.77532 1.16286,1.91783 1.16291,3.42751 -5e-5,2.6931 -0.69372,5.26374 -2.081,7.71192 -0.97933,1.83622 -2.38706,2.7543 -4.22319,2.75426 -0.93853,4e-5 -1.75461,-0.30599 -2.44823,-0.91809 -0.6529,-0.61201 -1.06094,-1.5505 -1.22411,-2.81546 -0.0817,-0.77523 -0.26527,-1.28527 -0.55085,-1.53014 -0.32647,-0.32639 -0.71411,-0.4896 -1.16291,-0.48965 -0.6937,5e-5 -1.34656,0.16326 -1.95858,0.48965 -1.06094,0.5713 -2.67269,2.16264 -4.83525,4.77404 -3.38675,3.99881 -7.05909,9.18089 -11.01703,15.54625 -1.71378,2.69307 -3.18271,5.73295 -4.40681,9.11965 -1.71377,4.65165 -2.69306,7.4467 -2.93787,8.38518 L 404.16946,400 l -9.36447,0 11.32306,-38.00874 c 1.3057,-4.40677 1.95856,-7.54866 1.95858,-9.42568 -2e-5,-0.73442 -0.30604,-1.34647 -0.91809,-1.83617 -0.81609,-0.65281 -1.89739,-0.97924 -3.2439,-0.97929 -0.85689,5e-5 -2.42783,0.18367 -4.71284,0.55085 l -0.42844,-2.26461" inkscape:connector-curvature="0" />
      <path id="italic-s" d="m 513.7831,344.60884 -3.73355,18.79015 -2.26461,0 c -0.20406,-5.46767 -1.36697,-9.44603 -3.48873,-11.93511 -2.12183,-2.48898 -4.75367,-3.7335 -7.89553,-3.73355 -2.52986,5e-5 -4.54965,0.69372 -6.05937,2.081 -1.46895,1.38737 -2.20342,3.06033 -2.2034,5.01886 -2e-5,1.34657 0.2856,2.63189 0.85688,3.85596 0.61203,1.22416 1.91775,2.93791 3.91716,5.14128 5.30447,5.79417 8.73198,10.16017 10.28256,13.09802 1.55051,2.93789 2.32578,5.71255 2.32582,8.32398 -4e-5,4.2436 -1.775,8.01795 -5.3249,11.32305 -3.50915,3.2643 -7.95676,4.89646 -13.34284,4.89646 -2.93789,0 -6.3246,-0.69367 -10.16015,-2.081 -1.34653,-0.48964 -2.38703,-0.73446 -3.12149,-0.73447 -1.83617,10e-6 -3.2235,0.93849 -4.16199,2.81547 l -2.26461,0 3.73355,-19.83065 2.26461,0 c 0.24482,6.20219 1.53014,10.58859 3.85596,13.15923 2.32581,2.57064 5.5085,3.85596 9.54809,3.85595 3.10107,10e-6 5.54929,-0.85687 7.34468,-2.57063 1.83615,-1.75456 2.75423,-3.89676 2.75426,-6.4266 -3e-5,-1.63214 -0.32646,-3.14188 -0.97929,-4.52923 -1.14253,-2.44821 -3.54996,-5.83492 -7.22227,-10.16014 -3.63156,-4.32517 -5.97777,-7.56907 -7.03866,-9.73171 -1.02011,-2.16256 -1.53015,-4.32516 -1.53014,-6.4878 -10e-6,-3.95793 1.42812,-7.30383 4.2844,-10.03774 2.89705,-2.7338 6.61019,-4.10072 11.13943,-4.10078 1.3057,6e-5 2.48901,0.10207 3.54994,0.30603 0.57122,0.12247 1.89734,0.59171 3.97837,1.40773 2.12176,0.77533 3.52949,1.16296 4.22319,1.16291 1.75452,5e-5 3.22346,-0.95884 4.40681,-2.87667 l 2.32582,0" inkscape:connector-curvature="0" />
      <path id="italic-t" d="m 565.3737,329.42983 -4.77404,16.64795 9.60929,0 -1.0405,3.85596 -9.54808,0 -10.52739,36.11136 c -1.14252,3.87637 -1.71377,6.3858 -1.71375,7.5283 -2e-5,0.69367 0.1632,1.22412 0.48964,1.59135 0.32642,0.36724 0.71405,0.55086 1.16291,0.55085 1.02008,1e-5 2.3666,-0.71406 4.03958,-2.1422 0.97927,-0.81607 3.16227,-3.3255 6.54901,-7.5283 l 2.01978,1.53014 c -3.75397,5.46772 -7.3039,9.32367 -10.64979,11.56788 -2.28503,1.55054 -4.59044,2.32582 -6.91624,2.32582 -1.79538,0 -3.26431,-0.55086 -4.40681,-1.65256 -1.14252,-1.1425 -1.71377,-2.59104 -1.71376,-4.3456 -10e-6,-2.2034 0.65285,-5.56971 1.95858,-10.09894 l 10.22135,-35.4381 -9.24206,0 0.61206,-2.38702 c 4.4884,-1.22407 8.22195,-3.03983 11.20064,-5.44731 2.97866,-2.44817 6.30416,-6.67136 9.97653,-12.66958 l 2.69305,0" inkscape:connector-curvature="0" />
      <text id="label-italic" x="30" y="430" style="font-size:36px;font-style:normal;font-weight:normal;text-align:start;line-height:121.00000381%;letter-spacing:0px;word-spacing:0px;text-anchor:start;fill:#000000;fill-opacity:1;stroke:none;font-family:Sans;-inkscape-font-specification:Sans" sodipodi:linespacing="121%" xml:space="preserve"><tspan
         id="span-italic" x="30" y="430" sodipodi:role="line">italic</tspan></text>
    </g>
    <g id="mono-sample">
      <path id="mono-a" d="m 85.430854,511.93213 c 0,-3.69813 -1.6e-5,-14.60288 -16.12006,-14.60288 -7.491079,0 -14.033938,2.56025 -18.111361,4.26708 l 1.801653,4.26707 c 7.585904,-3.31883 12.801228,-3.9826 16.214884,-3.9826 11.473679,0 11.47369,7.01697 11.47369,10.05133 l 0,2.93954 c -5.784251,-1.13788 -12.421929,-1.23271 -13.275343,-1.23271 -15.740749,0 -20.102664,9.19792 -20.102664,14.31841 0,6.54284 5.879091,13.37016 15.266646,13.37016 7.77555,0 14.223586,-4.55155 18.111361,-8.15485 l 0,6.82732 13.18052,0 0,-4.45672 -8.439326,0 0,-23.61115 m -4.741194,14.88735 c -8.154845,9.10308 -15.077,9.95651 -18.206185,9.95651 -5.310132,0 -10.051332,-3.98261 -10.051332,-8.7238 0,-1.13788 0.284487,-9.86168 15.930413,-9.86168 5.215308,0 10.146157,0.66376 12.327104,1.04306 l 0,7.58591" inkscape:connector-curvature="0" />
      <path id="mono-e" d="m 174.60995,530.42279 c -3.98259,1.9913 -12.7064,6.3532 -20.6716,6.3532 -14.60287,0 -17.73207,-10.90475 -18.01654,-15.83559 l 38.68814,0 c 0,-0.66377 0.18965,-2.74989 0.18965,-4.26708 0,-8.72378 -7.20663,-18.86995 -21.52502,-18.86995 -13.9391,0 -22.47326,10.14617 -22.47326,21.90432 0,11.18921 7.58593,21.61984 23.0422,21.61984 8.81862,0 18.01655,-3.9826 22.94738,-6.73249 l -2.18095,-4.17225 m -38.68814,-13.93911 c 0.66377,-4.26707 4.83603,-14.12876 17.35277,-14.12876 11.37886,0 16.30971,7.96521 16.40453,14.12876 l -33.7573,0" inkscape:connector-curvature="0" />
      <path id="mono-f" d="m 213.72203,500.36362 0,4.45672 9.86169,0 0,30.72294 -9.86169,0 0,4.45672 34.80037,0 0,-4.45672 -20.19749,0 0,-30.72294 20.19749,0 0,-4.45672 -20.19749,0 0,-5.02567 c 0,-5.12048 1e-5,-9.86168 8.91345,-9.86168 4.07742,0 9.10309,0.47412 13.27534,1.51718 l 1.9913,-4.74119 c -4.07742,-0.7586 -8.91345,-1.51719 -14.03393,-1.51719 -13.65463,0 -14.88735,6.54286 -14.88735,14.31841 l 0,5.31014 -9.86169,0" inkscape:connector-curvature="0" />
      <path id="mono-g" d="m 324.99512,499.22573 0,6.92214 -0.18965,0 c -5.31013,-7.30143 -14.03393,-7.30144 -15.077,-7.30144 -10.52544,0 -20.29231,8.43934 -20.29231,20.10267 0,10.71509 8.72381,20.10266 20.29231,20.10266 8.43932,0 13.84429,-5.40496 15.077,-7.39626 l 0.18965,0 0,5.49978 c 0,12.99086 -7.11181,13.27535 -22.94738,13.27535 l 0,4.45672 5.9739,0 c 16.97346,0 21.71467,-6.16356 21.71467,-17.73207 l 0,-33.47283 7.68074,0 0,-4.45672 -12.42193,0 m 0,19.91302 c 0,7.87037 -6.16356,15.17182 -15.077,15.17182 -8.43932,0 -15.36147,-6.82733 -15.36147,-15.4563 0,-9.00826 7.4911,-15.26664 15.36147,-15.26664 7.9652,0 15.077,6.16356 15.077,15.55112" inkscape:connector-curvature="0" />
      <path id="mono-r" d="m 375.10681,499.22573 0,4.45672 10.99957,0 0,31.86083 -11.75817,0 0,4.45672 34.5159,0 0,-4.45672 -18.01654,0 0,-20.76643 c 3.22401,-3.60331 10.71511,-12.13746 18.86995,-12.13746 3.79295,0 5.02567,2.08613 5.97391,3.50848 0,0.18965 0.28447,0.56895 0.37929,0.66377 l 5.02567,-3.69813 c -2.08612,-2.46542 -4.64638,-5.21531 -10.62028,-5.21531 -9.00826,0 -15.36147,6.54285 -19.62854,10.80992 l 0,-9.48239 -15.74076,0" inkscape:connector-curvature="0" />
      <path id="mono-s" d="m 490.26765,497.32925 c -0.18965,0.66377 -0.28447,0.75859 -0.56894,1.9913 -0.18965,0.56895 -0.66377,2.27578 -1.70683,2.27578 -0.7586,0 -1.89648,-0.66377 -2.08613,-0.85342 -1.70683,-1.04306 -5.40497,-2.74989 -10.90475,-2.74989 -9.95649,0 -16.78382,5.1205 -16.78382,11.94781 0,11.47368 14.6977,12.04263 19.72336,12.23228 7.87038,0.28447 13.55982,0.56895 13.55982,6.25838 0,7.30143 -10.24098,8.24967 -14.03394,8.24967 -13.1805,0 -14.6977,-8.06003 -15.26664,-11.28404 l -4.17225,0.47412 c 0.18965,2.18095 0.56894,5.31014 0.56894,9.38757 0,3.12918 -0.28447,4.3619 -0.56894,5.9739 l 4.17225,0 c 0.56894,-2.18095 1.04306,-3.9826 1.89648,-3.9826 0.18964,0 0.47412,0.18965 0.47412,0.18965 2.18094,1.2327 7.11179,3.9826 13.93911,3.9826 8.24967,0 18.11136,-3.98261 18.11136,-13.18052 0,-9.9565 -11.56852,-10.52545 -13.74946,-10.62028 -11.09439,-0.56894 -19.53372,-0.94824 -19.53372,-7.87038 0,-3.88777 4.26708,-7.01697 11.75816,-7.01697 13.08568,0 14.22358,6.16356 14.88735,9.86169 l 4.17225,-0.47412 c -0.18965,-1.61201 -0.47412,-3.31884 -0.47412,-5.97391 0,-3.69812 0.47412,-6.16355 0.85341,-8.15485 l -4.26707,-0.66377" inkscape:connector-curvature="0" />
      <path id="mono-t" d="m 540.00002,486.61415 0,13.93911 -6.44802,0 0,4.45673 6.44802,0 0,17.92171 c 0,6.25837 0,10.80993 3.31884,14.12876 1.9913,1.9913 5.87908,4.26707 11.75816,4.26707 6.16354,0 13.465,-2.65507 19.53372,-5.40496 l -1.70683,-4.26707 c -11.09438,4.64636 -15.17183,4.93084 -18.30101,4.93084 -9.9565,0 -9.86168,-6.63768 -9.86168,-13.65464 l 0,-17.92171 22.94737,0 0,-4.45673 -22.94737,0 0,-13.93911 -4.7412,0" inkscape:connector-curvature="0" />
      <text id="label-mono" x="30" y="570" style="font-size:36px;font-style:normal;font-weight:normal;text-align:start;line-height:121.00000381%;letter-spacing:0px;word-spacing:0px;text-anchor:start;fill:#000000;fill-opacity:1;stroke:none;font-family:Sans;-inkscape-font-specification:Sans" xml:space="preserve" sodipodi:linespacing="121%"><tspan
         id="span-mono" x="30" y="570" sodipodi:role="line">mono</tspan></text>
    </g>
    <g id="script-sample">
      <path id="script-a" d="m 55.327164,681.60035 c -1.551871,0 -3.249216,-0.48495 -5.092039,-1.45486 -1.745848,-0.87292 -3.24921,-2.13381 -4.510091,-3.78266 -1.260888,-1.74584 -1.89133,-3.58867 -1.891329,-5.5285 -1e-6,-1.93981 0.436459,-3.78264 1.309382,-5.5285 1.939819,-4.07361 5.043535,-8.00175 9.311156,-11.78443 4.364588,-3.87962 8.874675,-7.17732 13.530274,-9.8931 4.655547,-2.71572 8.34121,-4.41306 11.056998,-5.09204 2.715714,-0.6789 5.334474,-1.01837 7.856288,-1.01841 2.618715,4e-5 4.849511,0.67898 6.692393,2.03682 1.84278,1.26092 2.764196,2.6188 2.76425,4.07363 -5.4e-5,0.48499 -0.04855,0.77596 -0.145487,0.87292 -0.09704,0.097 -0.339523,0.0485 -0.727434,-0.14549 -1.163947,-1.8428 -3.588724,-2.76421 -7.274341,-2.76425 -3.588717,4e-5 -7.710839,1.21243 -12.366379,3.63717 -4.558616,2.32782 -8.874721,5.28605 -12.948327,8.8747 -3.394709,3.20073 -6.401434,6.8379 -9.020182,10.91151 -2.521781,3.97665 -3.782665,6.88638 -3.782658,8.72921 -7e-6,3.58867 1.018399,5.38301 3.055224,5.38301 2.036802,0 5.140518,-1.64885 9.311156,-4.94655 6.886349,-5.81946 11.590418,-10.08707 14.112221,-12.80284 8.923148,-9.6021 13.724208,-14.40316 14.403195,-14.4032 1.163844,4e-5 2.570216,0.3395 4.219117,1.01841 1.648796,0.67897 2.182248,1.50339 1.600355,2.47328 -4.946601,6.98339 -7.856334,14.01524 -8.729209,21.09558 -0.09704,0.87293 -0.145532,1.98833 -0.145486,3.3462 -4.6e-5,1.35788 0.387918,2.47328 1.163894,3.3462 1.45482,1.55186 3.443138,1.64885 5.96496,0.29097 2.521716,-1.35787 6.013395,-4.07362 10.475055,-8.14726 4.55851,-4.07362 8.19568,-8.05025 10.91151,-11.92992 0.38789,-0.48493 0.82435,-0.58192 1.30938,-0.29097 0.48488,0.194 0.72736,0.38798 0.72743,0.58194 -7e-5,1.45489 -2.32786,4.6556 -6.98337,9.60213 -4.55865,4.84957 -8.05033,8.14727 -10.47505,9.89311 -4.558637,3.39469 -8.77775,5.09203 -12.657349,5.09204 -3.685708,-10e-6 -6.158982,-1.84284 -7.419828,-5.5285 -0.291012,-1.16389 -0.436498,-2.47327 -0.43646,-3.92815 -3.8e-5,-4.36459 0.921377,-8.97167 2.76425,-13.82124 -0.388006,0.194 -2.182342,2.13382 -5.383013,5.81947 -3.200742,3.68568 -6.9349,7.22585 -11.202485,10.62054 -4.170642,3.39469 -7.953295,5.09203 -11.347971,5.09203" inkscape:connector-curvature="0" />
      <path id="script-e" d="m 170.73881,637.66334 c 5.23748,4e-5 7.85624,2.52181 7.85629,7.56531 -5e-5,2.6188 -0.72748,4.7526 -2.18231,6.40142 -2.42482,3.5887 -6.35296,6.74091 -11.78443,9.45664 -5.43153,2.61878 -10.03861,4.07365 -13.82125,4.36461 -1.35789,0.097 -2.08532,-0.29096 -2.1823,-1.1639 -0.097,-0.38794 -2e-5,-0.63042 0.29098,-0.72743 0.38794,-0.097 0.67892,-0.14547 0.87292,-0.14549 2.23077,-0.19396 5.09201,-1.26086 8.58372,-3.20071 6.49838,-3.49166 11.25094,-7.08033 14.25771,-10.76602 1.26084,-1.74581 1.89128,-3.39466 1.89133,-4.94655 -5e-5,-1.64882 -0.77598,-2.47324 -2.32779,-2.47328 -1.26093,4e-5 -2.95827,0.53349 -5.09204,1.60036 -4.55862,2.13384 -9.35968,5.86799 -14.4032,11.20248 -5.04356,5.23755 -8.34125,10.37808 -9.8931,15.4216 -0.48497,1.55187 -0.72745,3.10373 -0.72743,4.65558 -2e-5,1.45487 0.63043,2.86124 1.89132,4.21912 1.26088,1.35788 3.2007,2.03681 5.81948,2.03681 2.90971,0 6.25591,-0.77593 10.03859,-2.32778 10.95996,-4.46159 19.39819,-11.20248 25.3147,-20.22267 0.5819,-0.77591 1.11535,-0.9214 1.60036,-0.43646 0.38791,0.194 0.58189,0.43648 0.58195,0.72743 -6e-5,0.291 -0.14555,0.63046 -0.43647,1.01841 -2.90978,4.84958 -6.59545,9.16568 -11.05699,12.94833 -8.63226,7.37133 -17.02199,11.05699 -25.16922,11.05699 -6.98338,0 -11.88143,-2.08531 -14.69417,-6.25593 -1.06691,-1.64885 -1.60036,-3.63716 -1.60036,-5.96496 0,-2.32778 0.63044,-5.09202 1.89133,-8.29275 2.42478,-5.52847 7.6138,-11.20245 15.56709,-17.02195 7.95325,-5.81944 14.25768,-8.72917 18.91329,-8.72921" inkscape:connector-curvature="0" />
      <path id="script-r" d="m 417.31524,683.63717 c -4.94657,0 -7.41984,-2.95823 -7.41983,-8.8747 -1e-5,-6.01344 4.26759,-13.38476 12.80284,-22.11399 0.67891,-0.67891 1.16387,-1.21236 1.45487,-1.60036 l 1.01841,-1.45486 c 1.35784,-1.84281 1.98828,-3.0067 1.89133,-3.49169 l -0.43646,-1.30938 c -0.388,-1.16386 -1.98836,-1.98828 -4.80107,-2.47328 -2.81277,-0.5819 -5.09206,-0.87288 -6.83788,-0.87292 -8.72922,12.31791 -13.77276,19.34977 -15.13063,21.09559 -1.35788,1.74586 -2.2793,2.47329 -2.76425,2.1823 -0.48496,-0.29095 -0.72744,-0.63042 -0.72743,-1.0184 -10e-6,-0.38795 0.29097,-0.9699 0.87292,-1.74585 5.23752,-6.40139 9.7476,-13.23926 13.53027,-20.51364 -1.16391,-0.19394 -2.03683,-0.5819 -2.61876,-1.16389 -0.58196,-0.6789 -0.63046,-1.7458 -0.14549,-3.20071 0.48494,-1.55182 1.93981,-3.58863 4.36461,-6.11045 2.52175,-2.52172 4.70405,-4.21906 6.54691,-5.09204 1.8428,-0.87286 3.00669,-1.40631 3.49168,-1.60035 0.48492,-0.19393 1.01838,-0.29092 1.60035,-0.29097 1.16387,5e-5 0.7759,1.74589 -1.16389,5.23752 l -5.67399,9.02018 c 4.36458,0.29102 8.09874,0.43651 11.20249,0.43646 l 5.09204,-0.14548 c 1.6488,4e-5 2.86119,0.24252 3.63717,0.72743 0.77588,0.38801 0.96986,1.11544 0.58194,2.1823 -0.67898,1.84287 -2.37632,4.31615 -5.09203,7.41983 -5.81951,6.78941 -10.18411,14.01525 -13.09382,21.67754 -0.67896,1.84284 -1.01843,3.44319 -1.0184,4.80106 -3e-5,2.81275 1.01838,4.21912 3.05522,4.21912 0.67891,0 1.93979,-0.53345 3.78266,-1.60036 1.93978,-1.0669 5.14049,-3.58866 9.60213,-7.56531 4.46154,-4.07362 8.05022,-8.05025 10.76602,-11.92992 0.38791,-0.48493 0.82437,-0.58192 1.30938,-0.29097 0.58189,0.194 0.87287,0.43648 0.87292,0.72743 -5e-5,0.194 -0.097,0.43648 -0.29097,0.72744 -1.45492,2.61878 -4.07368,5.96497 -7.85629,10.03859 -3.7827,4.07363 -7.46836,7.37133 -11.057,9.8931 -3.49171,2.71575 -7.27437,4.07363 -11.34797,4.07363" inkscape:connector-curvature="0" />
      <path id="script-s" d="m 469.44009,681.45487 c -1.26089,1.45486 -1.55186,2.61876 -0.87292,3.49168 0.77593,0.87292 1.60035,1.30938 2.47328,1.30938 0.9699,0 1.93981,-0.14549 2.90974,-0.43646 4.1706,-1.26089 8.19573,-3.73416 12.0754,-7.41982 3.97661,-3.78266 5.96493,-7.61381 5.96496,-11.49346 -3e-5,-2.13379 -2.37631,-4.46158 -7.12885,-6.98337 -2.23082,-1.16387 -3.49171,-1.84281 -3.78266,-2.03682 -2.61878,-1.74581 -4.26763,-3.49165 -4.94655,-5.23752 -1.35789,2.32781 -3.54019,5.67401 -6.54691,10.03859 -0.67894,0.77595 -1.30939,0.96993 -1.89133,0.58195 -0.58195,-0.48494 -0.63044,-1.11538 -0.14548,-1.89133 3.97663,-5.43149 6.59539,-9.99007 7.85628,-13.67576 0.67893,-5.33448 4.55857,-10.13554 11.63895,-14.4032 7.08033,-4.26756 13.53023,-6.40136 19.34975,-6.40142 3.68561,6e-5 6.25588,0.67899 7.7108,2.03682 1.5518,1.26093 2.32773,2.52182 2.32779,3.78265 -6e-5,1.26094 -0.38802,2.7158 -1.1639,4.36461 -0.67899,1.64889 -2.13386,3.20075 -4.3646,4.65558 -0.582,0.388 -1.06695,0.29101 -1.45487,-0.29098 -0.19403,-0.5819 0.19393,-1.35783 1.16389,-2.32779 1.06686,-1.06686 1.7458,-2.47323 2.03682,-4.21911 0.29092,-1.7458 -0.48501,-2.8127 -2.32779,-3.20071 -0.29102,5e-5 -0.58199,5e-5 -0.87292,0 -3.7827,5e-5 -8.53527,1.40642 -14.25771,4.21911 -5.62552,2.81279 -10.03861,6.44996 -13.2393,10.91152 -1.2609,1.64888 -1.89135,3.34622 -1.89133,5.09203 -2e-5,1.64888 1.16388,3.15224 3.49169,4.5101 0.96989,0.58197 2.61873,1.50338 4.94655,2.76425 2.32776,1.2609 3.97661,2.18232 4.94655,2.76424 0.96988,0.58197 2.13377,1.50339 3.49168,2.76425 1.35784,1.2609 2.08528,2.4248 2.18231,3.49169 0.48491,2.90974 -0.87296,6.11045 -4.07364,9.60213 -4.55861,5.04354 -11.34799,8.58371 -20.36815,10.62054 -2.03683,0.48494 -4.12213,0.72742 -6.25593,0.72743 -2.03682,-10e-6 -3.44319,-0.77594 -4.21912,-2.32779 -0.29098,-0.38797 -0.43646,-1.01841 -0.43646,-1.89133 0,-0.77593 0.77593,-2.08531 2.32779,-3.92814 1.45486,-1.45487 3.78265,-2.86124 6.98337,-4.21912 0.29096,-0.097 0.53344,-0.0485 0.72743,0.14549 0.19397,0.19398 0.24247,0.43646 0.14549,0.72743 -0.097,0.29098 -0.63046,0.63045 -1.60036,1.01841 -0.87293,0.38796 -1.84284,1.30938 -2.90974,2.76425" inkscape:connector-curvature="0" />
      <path id="script-t" d="m 559.82807,639.26369 c 7.46829,-0.6789 11.97837,-1.01836 13.53026,-1.01841 1.64882,5e-5 2.47323,0.24252 2.47329,0.72744 -5e-5,0.58199 -1.16394,1.21243 -3.49168,1.89133 -2.23084,0.58198 -7.75934,1.35791 -16.5855,2.32779 -0.48498,0.87295 -1.06693,1.89136 -1.74584,3.05522 -1.45489,2.32782 -2.23082,3.73419 -2.3278,4.21912 -5.52852,11.05701 -8.43825,18.08887 -8.72921,21.09558 -0.097,0.87293 -0.14549,1.98833 -0.14549,3.3462 0,1.35788 0.38796,2.47328 1.16391,3.3462 1.35785,1.55186 3.29768,1.64885 5.81947,0.29097 2.52175,-1.35787 6.01342,-4.07362 10.47505,-8.14726 4.55855,-4.07362 8.2442,-8.05025 11.057,-11.92992 0.38792,-0.48493 0.87288,-0.58192 1.45487,-0.29097 1.45482,0.67896 -1.06695,4.51011 -7.56532,11.49346 -6.20746,6.69239 -11.39649,10.81452 -15.56709,12.36638 -2.42479,0.87291 -4.46161,1.30937 -6.11045,1.30938 -3.87965,-10e-6 -6.44993,-1.84284 -7.71081,-5.5285 -0.19398,-0.67894 -0.29097,-1.50336 -0.29097,-2.47328 0,-3.39468 1.55185,-8.53521 4.65558,-15.4216 -0.48497,1.06692 -2.37629,3.4917 -5.67399,7.27434 -0.87292,0.96992 -1.55186,0.96992 -2.03681,0 -0.097,-0.19397 -0.14549,-0.43645 -0.14549,-0.72743 0,-0.38795 0.19398,-0.82441 0.58195,-1.30939 4.75257,-5.91644 8.48672,-10.91148 11.20249,-14.98514 -10e-6,-0.097 1.06688,-2.13377 3.2007,-6.11044 -0.96992,0.19401 -1.98833,0.29101 -3.05521,0.29097 -0.96992,4e-5 -1.69736,-0.29094 -2.18231,-0.87292 -0.48497,-0.6789 -0.53346,-1.45483 -0.14549,-2.32779 0.67894,-1.55182 3.24919,-2.42474 7.7108,-2.61876 0.097,-0.19394 0.29096,-0.29093 0.58195,-0.29098 l 7.27434,-13.53027 c 0.38794,-0.77587 0.8244,-1.5518 1.30939,-2.32779 0.48492,-0.87286 0.82439,-1.5033 1.01841,-1.89133 0.29094,-0.48489 0.58191,-0.96985 0.87292,-1.45487 0.29094,-0.48489 0.53342,-0.82436 0.72743,-1.0184 0.19396,-0.19392 0.38794,-0.38791 0.58195,-0.58195 0.38793,-0.58189 1.50333,-0.87286 3.3462,-0.87292 1.93979,6e-5 3.24917,0.53351 3.92814,1.60035 0.29093,0.38803 0.43642,1.06697 0.43646,2.03682 -4e-5,0.87298 -0.33951,1.89138 -1.01841,3.05522 -0.67898,1.06696 -1.4064,1.84289 -2.18231,2.32779 -0.77596,0.48501 -1.3094,1.01846 -1.60035,1.60036 l -6.98337,12.22089 1.89133,-0.14549" inkscape:connector-curvature="0" />
      <text id="label-script" x="30" y="710" style="font-size:36px;font-style:normal;font-weight:normal;text-align:start;line-height:121.00000381%;letter-spacing:0px;word-spacing:0px;text-anchor:start;fill:#000000;fill-opacity:1;stroke:none;font-family:Sans;-inkscape-font-specification:Sans" sodipodi:linespacing="121%" xml:space="preserve"><tspan
         id="span-script" x="30" y="710" sodipodi:role="line">script</tspan></text>
    </g>
    <g id="uncial-sample">
      <path id="uncial-a" d="m 78.536492,816.73096 3.995489,5.26678 8.354204,-5.44839 c -0.484342,-0.66591 -1.029181,-1.42263 -1.634518,-2.27016 -0.605416,-0.90806 -1.150255,-1.75559 -1.634518,-2.54259 -2.603157,-4.11655 -4.873319,-9.74655 -6.810493,-16.89002 l -0.998872,-3.81387 c -1.574009,-5.69051 -3.08745,-9.50439 -4.540328,-11.44163 -2.845295,-3.45061 -5.508952,-5.17593 -7.990978,-5.17598 l -1.816131,0.45404 -2.451777,1.63452 -6.447266,4.99436 1.906938,2.17935 3.904682,-2.54258 c 1.392353,0.84757 2.542569,1.93724 3.450649,3.26904 0.968587,1.27132 1.755576,2.7545 2.360971,4.44952 l 1.997744,6.26565 c -13.257765,5.93272 -19.886638,11.83514 -19.886637,17.70728 -10e-7,1.7556 0.726451,3.45065 2.179357,5.08517 1.513439,1.57398 3.269031,2.60312 5.266781,3.08742 6.174832,-0.4843 12.470748,-2.99661 18.887765,-7.53694 l 1.906938,3.26903 m -19.432605,-8.53581 c -9e-6,-2.60311 1.301551,-4.72193 3.904683,-6.35646 2.179342,-1.45289 4.721923,-2.17934 7.627751,-2.17936 l 0.726453,0.0908 0.181613,0 2.63339,8.44501 c -1.331852,4.90356 -4.177122,7.35533 -8.535817,7.35533 l -0.635646,0 -0.726452,-0.0908 c -3.450661,-2.9058 -5.175984,-5.32731 -5.175975,-7.26452" inkscape:connector-curvature="0" />
      <path id="uncial-e" d="m 172.70139,807.83192 -5.99324,-2.17936 c -1.75562,7.56722 -4.29821,11.35083 -7.62775,11.35082 -4.05605,10e-6 -7.77911,-1.87666 -11.1692,-5.63 -2.96637,-3.32957 -4.72196,-6.96182 -5.26679,-10.89679 l 10.71518,-0.0908 c 5.32729,-0.12105 10.53353,-1.7253 15.61873,-4.81275 l -1.45291,-2.63339 c -2.361,1.45293 -4.72197,2.17939 -7.08291,2.17936 l -0.54484,0 -17.52567,-0.36322 c 0.0605,-1.57396 0.27241,-3.14794 0.63565,-4.72195 0.42375,-1.57395 0.96859,-3.11766 1.63452,-4.63113 1.81611,-3.93491 4.11654,-5.90239 6.9013,-5.90243 1.69503,4e-5 4.02573,0.96865 6.9921,2.90581 2.54256,1.69509 4.75218,3.48095 6.62888,5.35759 l 7.08291,-5.81162 c -5.20628,-5.02459 -10.47305,-7.5369 -15.80034,-7.53695 -7.80938,2.36102 -13.46965,5.05494 -16.98083,8.08179 -4.78248,4.1166 -7.17372,9.7466 -7.17371,16.89002 -1e-5,6.11432 1.75559,11.19949 5.26678,15.2555 3.57171,3.99549 8.38445,6.35646 14.43824,7.08291 l 8.44501,-1.36209 c 3.7533,-0.60538 6.56831,-1.81613 8.44501,-3.63227 1.93717,-1.81612 3.3598,-4.51005 4.26791,-8.08178 l -0.45403,-0.81726" inkscape:connector-curvature="0" />
      <path id="uncial-f" d="m 218.46639,834.34744 10.17033,-1.27129 0.0908,-18.25212 7.80936,0.0908 0.36323,0 c 3.14793,10e-6 6.44724,-1.4529 9.89792,-4.35871 l -1.45291,-1.81613 c -0.36326,0.24216 -0.75675,0.48431 -1.18048,0.72645 -0.36326,0.18162 -0.69622,0.33297 -0.99888,0.45403 l -1.81613,0.27242 -12.5313,-0.45403 c -2e-5,-0.48429 -2e-5,-0.96859 0,-1.45291 -2e-5,-0.54482 0.0302,-1.18047 0.0908,-1.90693 0.0605,-0.84752 0.0908,-1.57397 0.0908,-2.17936 -2e-5,-0.6659 -2e-5,-1.18047 0,-1.54371 l 0.0908,-7.26453 0,-0.99887 c -2e-5,-1.57395 -0.0908,-3.45062 -0.27242,-5.63001 -0.1211,-2.17932 -0.33298,-4.6311 -0.63565,-7.35533 l -0.90806,-8.53582 c -2e-5,-1.75554 0.60536,-3.14791 1.81613,-4.1771 l -0.0908,0.0908 c 0.24213,-0.12103 0.45401,-0.2421 0.63565,-0.36323 0.18159,-0.12102 0.42374,-0.27237 0.72645,-0.45403 1.87665,0.0606 5.62998,2.14914 11.26001,6.26565 l 6.26566,-5.63001 c -4.66144,-3.93489 -8.68719,-6.11425 -12.07728,-6.53807 -4.2982,1.69511 -8.11207,3.8442 -11.44162,6.44727 -2.30045,1.75564 -4.02577,3.4507 -5.17598,5.08517 -1.08968,1.63456 -1.63452,3.26908 -1.63452,4.90355 l 0,0.63565 0.63565,8.08178 0,-0.0908 0.45403,9.53469 c 0.0605,0.66594 0.0908,1.45293 0.0908,2.36097 -1e-5,0.90809 -1e-5,1.9675 0,3.17823 l 0,4.26791 -0.0908,3.54146 -4.08629,4.44952 4.08629,0.27242 -0.18161,19.61422" inkscape:connector-curvature="0" />
      <path id="uncial-g" d="m 321.25789,826.08404 c -0.54488,2.54257 -2.42154,4.2679 -5.63001,5.17597 l 1.72533,2.45178 c 5.02459,-1.63453 8.68712,-3.78362 10.98759,-6.44726 2.60308,-2.96636 3.93491,-6.78023 3.99549,-11.44163 l 0.45403,-19.06938 -13.8934,1.54371 0,2.45178 1.08968,0 0.45403,-0.0908 c 1.15018,0.30271 1.72529,1.15024 1.72532,2.54259 l 0,0.27242 -0.27242,7.80936 -0.72645,0.81726 c -3.26907,3.51119 -5.29708,5.26678 -6.08404,5.26678 -4.66143,0 -8.53584,-2.48204 -11.62324,-7.44614 -2.78475,-4.54031 -4.17711,-9.23198 -4.1771,-14.07502 -10e-6,-4.72191 0.63563,-8.23309 1.90694,-10.53356 1.57396,-2.90577 4.38896,-4.75217 8.44501,-5.5392 5.9932,1.08972 10.95729,4.5101 14.89227,10.26114 l 5.5392,-8.3542 c -3.99552,-3.39007 -8.20289,-5.66023 -12.62211,-6.81049 -0.6054,-0.12103 -1.27132,-0.21184 -1.99774,-0.27242 -0.66594,-0.12103 -1.42267,-0.18157 -2.27017,-0.18162 -7.62777,2.90586 -13.13669,5.84193 -16.52679,8.80824 -4.90356,4.17714 -7.35533,9.68606 -7.35533,16.5268 0,6.7197 2.05828,12.04701 6.17484,15.98195 4.11656,3.93495 8.5358,5.90243 13.25776,5.90243 1.87665,0 3.90466,-0.33296 6.08404,-0.99887 0.54481,-0.18162 1.39234,-0.54484 2.54259,-1.08968 1.15018,-0.60538 2.60308,-1.39237 4.35871,-2.36097 l -0.0908,5.5392 c -0.0606,0.78698 -0.12111,1.4529 -0.18161,1.99774 -3e-5,0.54484 -0.0606,0.99887 -0.18161,1.3621" inkscape:connector-curvature="0" />
      <path id="uncial-r" d="m 388.36241,820 0.0908,-11.53243 0.27242,-0.0908 c 0.6659,0.12109 1.96746,1.05942 3.90468,2.815 l 0.72646,0.81726 3.54145,3.35985 c 4.60084,4.29817 8.92928,6.44726 12.98534,6.44726 0.72641,0 1.33179,0 1.81613,0 0.48426,0 0.78695,-0.0303 0.90807,-0.0908 1.39232,-0.0605 2.60308,-0.21188 3.63226,-0.45403 1.08963,-0.24215 2.05824,-0.57511 2.90581,-0.99887 l 0,-2.45178 -1.45291,0.18162 -0.63564,0 c -1.39241,0 -3.35989,-0.99887 -5.90243,-2.99662 -1.15025,-0.90806 -2.42154,-2.05828 -3.81387,-3.45065 -1.3924,-1.4529 -2.93611,-3.17822 -4.63114,-5.17597 1.99771,-0.72644 3.72304,-1.48316 5.17598,-2.27017 1.5134,-0.84751 2.81496,-1.72531 3.90468,-2.63339 l -0.0908,0 c 3.14792,-2.6031 4.7219,-5.9024 4.72194,-9.89791 -4e-5,-5.0246 -1.6951,-9.08062 -5.08516,-12.16808 -3.08746,-2.90577 -7.23429,-4.57056 -12.4405,-4.99437 -1.51347,0.54489 -3.17826,1.33188 -4.99437,2.36098 -1.81615,0.96864 -3.78362,2.23993 -5.90242,3.81387 l -0.72645,-2.27016 -1.3621,-3.63227 -11.71405,3.08743 0.72645,2.815 1.08968,0 c 0.18161,4e-5 0.33296,0.0606 0.45403,0.18161 0.12108,0.12112 0.27242,0.42381 0.45404,0.90807 l 1.27129,4.44952 0,-0.0908 0.45403,2.36098 0.27242,2.63339 -0.54484,30.14778 L 388.36241,820 m 0.36323,-26.69713 c 0.12106,-2.3004 0.48429,-4.72191 1.08968,-7.26453 l 0,0.0908 c 0.48428,-1.27126 0.87778,-2.27013 1.18048,-2.99662 0.36321,-0.78695 0.63563,-1.36206 0.81726,-1.72532 l 1.3621,-0.45403 c 0.48428,-0.12104 0.81724,-0.18158 0.99887,-0.18162 3.20848,4e-5 6.08402,1.48322 8.62663,4.44953 l 0,-0.0908 c 2.3004,2.72423 3.45061,5.84192 3.45065,9.35308 -4e-5,3.93497 -1.69509,6.87104 -5.08517,8.80823 -2.90584,1.63454 -6.53809,2.45179 -10.89679,2.45178 l -1.3621,0 -0.36322,0 0.18161,-12.4405" inkscape:connector-curvature="0" />
      <path id="uncial-s" d="m 471.81213,807.92273 -11.16921,0.81726 0,1.90693 -0.0908,1.54372 0,0.45403 c -10e-6,3.32958 1.75559,5.75108 5.26678,7.26452 2.66365,1.21076 5.84187,1.81613 9.53469,1.81613 5.08514,0 9.32278,-1.18048 12.71292,-3.54145 3.81384,-2.78473 5.72077,-6.68941 5.72081,-11.71405 -4e-5,-4.29816 -4.57063,-8.44499 -13.71179,-12.4405 l -4.1771,-1.81613 c -5.2668,-2.3004 -7.93045,-4.41922 -7.99098,-6.35646 l 0.36323,-2.36097 0,0.0908 c 0.12106,-0.42373 0.24213,-0.84749 0.36322,-1.27129 0.1816,-0.42373 0.39348,-0.78696 0.63565,-1.08968 0.84751,-0.48427 1.48316,-0.78695 1.90694,-0.90807 0.42375,-0.12103 0.87778,-0.18157 1.36209,-0.18161 1.87666,4e-5 4.32843,0.87783 7.35534,2.63339 3.26901,1.99778 4.90352,3.75337 4.90355,5.26678 l 0,0.63565 -0.27242,1.54371 2.08855,1.4529 5.99323,-9.7163 c -1.45293,-1.21072 -2.87557,-2.27012 -4.2679,-3.17823 -1.33186,-0.90802 -2.60315,-1.72528 -3.81388,-2.45178 -2.17938,-1.27124 -3.96524,-1.90689 -5.35759,-1.90694 -1.45292,5e-5 -3.45066,0.57516 -5.99323,1.72533 -1.27131,0.60542 -2.39125,1.15026 -3.35984,1.63452 -0.96862,0.48434 -1.72534,0.93837 -2.27017,1.3621 -4.29818,3.26907 -6.44727,7.4159 -6.44726,12.4405 -1e-5,3.8139 3.57171,7.29481 10.71517,10.44275 l 2.815,1.27129 c 5.99321,2.72421 8.98983,5.29706 8.98985,7.71856 -2e-5,2.05829 -0.66594,3.87442 -1.99774,5.44839 -1.27131,1.57399 -2.9361,2.36098 -4.99436,2.36097 -1.63454,1e-5 -2.99663,-0.5751 -4.0863,-1.72532 -1.02915,-1.15021 -1.54372,-2.57285 -1.54371,-4.26791 l 0.18162,-1.54371 0.63564,-3.35984" inkscape:connector-curvature="0" />
      <path id="uncial-t" d="m 571.15301,807.46869 -7.80937,-1.08967 c -3e-5,5.56947 -1.15024,9.53469 -3.45065,11.89566 -0.42378,-0.12108 -0.84755,-0.3935 -1.27129,-0.81726 l 0.0908,0.0908 -1.45291,-1.54371 -1.18048,-1.81613 c -0.42379,-0.42376 -0.69621,-1.11994 -0.81726,-2.08855 l -0.27242,-4.0863 0.27242,-27.06035 1.27129,-0.0908 3.90468,0 3.35984,0.0908 0.27242,0 c 3.20847,4e-5 6.17482,-1.60421 8.89905,-4.81275 l -1.45291,-2.36097 c -1.02917,0.84757 -1.72536,1.33187 -2.08855,1.4529 -1.3924,0.84758 -3.08745,1.27134 -5.08517,1.2713 l -9.08065,0 c 0.12105,-3.32953 0.90804,-6.26561 2.36097,-8.80824 l -1.18049,-1.72533 -10.71517,6.26566 -0.45404,2.27016 -0.0908,1.90694 0,0.0908 -5.99324,0 c -1.33183,4e-5 -2.17935,0.15138 -2.54258,0.45403 -0.36322,0.24219 -0.57511,0.63569 -0.63565,1.18048 l -0.81725,4.17711 1.63451,0.54484 c 1.63452,-1.27126 3.2085,-1.9069 4.72195,-1.90694 l 3.63226,0 -0.18162,23.42809 0,1.63452 -0.0908,1.54371 0,1.18049 c -10e-6,3.75334 1.11994,6.84076 3.35984,9.26227 3.08741,2.54258 6.35644,3.81387 9.80711,3.81387 4.23761,0 7.44611,-1.08968 9.6255,-3.26904 2.66362,-2.66365 3.99545,-6.14456 3.99548,-10.44275 l -0.54483,-0.63565" inkscape:connector-curvature="0" />
      <text id="label-uncial" x="30" y="850" style="font-size:36px;font-style:normal;font-weight:normal;text-align:start;line-height:121.00000381%;letter-spacing:0px;word-spacing:0px;text-anchor:start;fill:#000000;fill-opacity:1;stroke:none;font-family:Sans;-inkscape-font-specification:Sans" xml:space="preserve" sodipodi:linespacing="121%"><tspan
         id="span-uncial" x="30" y="850" sodipodi:role="line">uncial</tspan></text>
    </g>
    <g id="blackletter-sample">
      <path id="blackletter-a" d="m 94.657644,945.49087 c -0.307121,0.0768 -0.921263,0.30709 -1.842428,0.69092 -0.844494,0.38385 -1.381869,0.57577 -1.612125,0.57575 -1.61217,2e-5 -2.686919,-1.30503 -3.22425,-3.91516 -0.153579,-0.84442 -0.268731,-1.65049 -0.345456,-2.41818 -0.07681,-0.84443 -0.191962,-1.68888 -0.345455,-2.53334 l -0.345455,-30.05462 c 0.690867,-3.07066 2.302991,-5.8343 4.836375,-8.29093 l -5.642438,-2.64849 c -2.379843,-1.45852 -4.529341,-2.80196 -6.4485,-4.03031 -1.91923,-1.30499 -3.646505,-2.53327 -5.18183,-3.68486 -2.149528,2.53341 -5.834382,5.60412 -11.054572,9.21214 -5.527299,3.91522 -9.327304,6.98593 -11.400027,9.21215 -3.684861,3.83844 -5.527288,7.56168 -5.527286,11.16972 -2e-6,0.99802 0.11515,1.95762 0.345456,2.87879 l -0.230304,16.12126 c -0.07677,2.53335 -2e-6,4.798 0.230304,6.79395 0.230301,1.99598 0.537372,3.72325 0.921214,5.18183 1.458585,4.91315 4.37576,8.32932 8.751536,10.24851 l 14.048518,-13.47276 c 0.537348,2.53335 2.072704,4.95154 4.606071,7.25456 1.535325,1.30506 2.878761,2.41819 4.030313,3.33941 1.151482,0.92121 2.111079,1.68889 2.878795,2.30303 l 12.551544,-13.93337 m -23.260661,-3.3394 c -2.7e-5,0.61416 -0.115178,1.26669 -0.345455,1.95758 -0.23033,0.61416 -0.575785,1.2283 -1.036366,1.84243 -0.383864,0.53739 -0.844471,0.998 -1.381821,1.38182 -0.460631,0.38386 -0.959622,0.57577 -1.496974,0.57576 -1.612146,1e-5 -2.917198,-1.1515 -3.91516,-3.45455 -0.844465,-1.76564 -1.18992,-3.0707 -1.036367,-3.91516 l 0,-39.84252 1.381822,0 c 1.228265,6e-5 2.802005,1.07481 4.721223,3.22425 2.072706,2.22632 3.109071,3.83844 3.109098,4.83637 l 0,33.39402" inkscape:connector-curvature="0" />
      <path id="blackletter-e" d="m 169.49139,906.10896 -8.63638,-15.66064 c -3.30104,2.14957 -6.17984,4.03038 -8.63639,5.64244 -2.37982,1.61219 -4.37578,2.95562 -5.98789,4.03031 -7.67679,5.52734 -11.51518,10.21018 -11.51518,14.04852 l 0,24.64248 c 0,5.5273 0.72929,9.596 2.18789,12.20609 1.91919,3.76163 5.98788,6.75557 12.20609,8.98184 l 16.69701,-14.73943 c -0.76772,0.53739 -1.45863,1.03638 -2.07274,1.49697 -0.61417,0.38386 -1.18993,0.7677 -1.72727,1.15152 -1.38185,0.92123 -2.2263,1.38183 -2.53334,1.38182 -1.99599,10e-6 -3.99195,-1.80403 -5.9879,-5.41213 -1.68891,-3.301 -2.53335,-6.10302 -2.53334,-8.40608 l 0,-10.93942 c -1e-5,-3.53128 1.45857,-6.21816 4.37577,-8.06063 6.29494,-3.99188 11.01616,-7.44643 14.16367,-10.36366 m -13.01215,8.06063 c -0.92124,1.07479 -2.57174,2.34146 -4.95153,3.80001 -0.38385,-0.6141 -0.57577,-0.99794 -0.57576,-1.15152 l 0,-16.81216 5.52729,14.16367" inkscape:connector-curvature="0" />
      <path id="blackletter-f" d="m 242.36755,876.1695 c -4e-5,-0.69083 -0.0768,-1.42012 -0.23029,-2.18788 -0.15358,-0.7676 -0.3455,-1.49689 -0.57577,-2.18789 -0.23034,-0.76759 -0.53741,-1.4585 -0.92122,-2.07273 -0.38387,-0.61405 -0.80609,-1.03628 -1.26667,-1.26667 0.30704,1.15161 0.46058,2.03444 0.46061,2.64849 -3e-5,1.22837 -0.53741,1.84252 -1.61213,1.84243 -0.46063,9e-5 -1.76568,-0.61406 -3.91516,-1.84243 -2.22629,-1.30496 -3.91518,-1.95749 -5.06667,-1.95758 -5.14347,9e-5 -8.75155,5.18192 -10.82427,15.54549 -0.30708,1.45866 -0.53739,2.72533 -0.69091,3.80001 -0.15355,0.99805 -0.30708,1.8425 -0.46061,2.53334 -1.30506,4.98997 -3.87678,9.51927 -7.71517,13.58791 1.30505,0.15359 2.41818,0.30713 3.3394,0.46061 0.99798,0.0768 1.76566,0.15359 2.30304,0.2303 0.53736,3.53137 0.88283,6.10309 1.03636,7.71517 l 2.07275,28.9031 4.49091,32.4728 0.69091,0.11516 c 0.23028,0.0767 0.69089,0.11513 1.38182,0.11515 1.1515,-3.99194 2.18786,-9.13538 3.10911,-15.43034 0.99796,-6.37173 1.88079,-13.97174 2.64849,-22.80006 l 2.41818,-31.43643 7.13941,0 c 0.30704,5e-5 0.76765,-0.30702 1.38183,-0.92122 l 0.2303,-8.63638 c -3e-5,-0.92115 -0.34549,-1.57368 -1.03637,-1.95758 l -5.29698,0 c -2.53336,6e-5 -5.45054,-1.2666 -8.75153,-3.80001 -3.60811,-2.53327 -5.41215,-4.95145 -5.41214,-7.25456 -1e-5,-1.99589 0.88282,-2.99387 2.64849,-2.99395 0.84443,8e-5 2.61009,0.88291 5.29699,2.64849 2.68685,1.76574 4.72119,2.64857 6.10304,2.64849 4.68281,8e-5 7.02422,-2.84033 7.02426,-8.52123" inkscape:connector-curvature="0" />
      <path id="blackletter-g" d="m 328.60131,957.23636 c -4e-5,-1.91919 -0.72934,-4.60607 -2.18788,-8.06063 -1.84247,-4.06868 -3.10914,-7.36969 -3.80001,-9.90305 l -0.2303,-29.36371 c 0.30703,-1.99591 0.49895,-3.49288 0.57576,-4.49092 0.15349,-1.07469 0.26864,-1.68883 0.34545,-1.84243 0.15349,-0.30701 0.72925,-0.95954 1.72728,-1.95758 1.15147,-1.22822 1.76561,-2.14944 1.84243,-2.76364 -1.76571,-0.76762 -3.03238,-1.34337 -3.80001,-1.72728 l -13.35761,-9.21214 c -2.22629,2.45664 -5.83438,5.45059 -10.82427,8.98184 -5.29699,3.53138 -9.02023,6.41017 -11.16972,8.63638 -3.53133,3.60815 -5.29698,7.25461 -5.29698,10.93942 0,0.30712 0,0.61419 0,0.92122 0,0.23034 0.0384,0.53742 0.11515,0.92121 l 0.2303,24.75764 c 0.61414,3.8384 1.49697,6.52528 2.64849,8.06062 1.22828,1.30506 2.30303,2.45658 3.22425,3.45456 0.92121,0.92121 1.68889,1.65051 2.30304,2.18788 -4.52931,2.68688 -6.79396,5.68082 -6.79396,8.98184 0,1.45858 0.38384,2.87879 1.15152,4.26062 0.84444,1.38181 2.03434,2.61009 3.56971,3.68485 1.53534,1.07474 3.45454,1.91918 5.75759,2.53334 2.37978,0.6909 5.14342,1.03635 8.29093,1.03637 5.98786,-2e-5 11.3616,-1.34346 16.12125,-4.03031 6.37168,-3.6081 9.55755,-8.94346 9.55759,-16.0061 m -22.22429,-15.31519 c -3e-5,0.84446 -0.42225,1.76568 -1.26667,2.76364 -0.84447,0.998 -1.68892,1.49699 -2.53334,1.49698 -0.84447,10e-6 -1.91922,-0.76767 -3.22425,-2.30304 -1.15154,-1.45857 -1.72729,-2.72524 -1.72728,-3.80001 l 0,-36.27281 c -10e-6,-0.38378 0.19191,-1.65045 0.57576,-3.80001 0.99797,0.30713 2.5717,1.15158 4.72123,2.53334 2.30301,1.38188 3.45452,2.30309 3.45455,2.76364 l 0,36.61827 m 5.29698,20.26671 c -3e-5,3.60809 -1.18993,6.71718 -3.5697,9.3273 -2.4566,2.68686 -5.45054,4.0303 -8.98184,4.03031 -7.13943,-10e-6 -11.55357,-2.6485 -13.24246,-7.94547 l 0.34546,-2.41819 c 0.9212,3.30101 3.03232,4.95152 6.33334,4.95153 1.61212,-1e-5 2.99394,-0.53739 4.14547,-1.61213 1.22827,-1.07476 1.84241,-2.41819 1.84243,-4.03031 -2e-5,-1.6889 -0.57578,-3.26264 -1.72728,-4.72122 -1.15153,-1.53536 -2.53335,-2.53334 -4.14546,-2.99395 l 13.3576,-11.05457 c 0.30705,0.84446 0.80604,2.07274 1.49698,3.68486 0.76765,1.61213 1.68886,3.53132 2.76364,5.75758 0.92118,1.99597 1.38179,4.33739 1.38182,7.02426" inkscape:connector-curvature="0" />
      <path id="blackletter-r" d="m 406.31384,903.80593 -8.40608,-11.51518 -7.94547,11.16972 c -0.3071,-5.06661 -3.41619,-9.17369 -9.3273,-12.32124 l -11.97578,12.897 c 0.84444,-0.30701 1.4202,-0.61408 1.72727,-0.92121 2.68687,1.38187 4.03031,3.60814 4.03032,6.6788 l 0,30.16977 c -1e-5,2.22628 -0.499,4.1071 -1.49698,5.64244 -0.0768,0.15355 -0.30707,0.42223 -0.69091,0.80606 -0.38384,0.30708 -0.88283,0.76769 -1.49697,1.38182 -1.22829,1.07476 -1.76566,1.84244 -1.61213,2.30304 L 385.24106,960 400.90171,945.83633 c -0.15357,-0.0767 -0.88287,0.42224 -2.18789,1.49697 -1.30508,1.07477 -2.07276,1.61214 -2.30303,1.61213 -1.68892,10e-6 -3.26266,-0.84444 -4.72123,-2.53334 -1.45861,-1.68888 -2.1879,-3.41615 -2.18788,-5.18183 l 0.34546,-27.52128 c -0.0768,-0.8444 -0.11518,-1.65046 -0.11516,-2.41819 -2e-5,-0.76762 -2e-5,-1.49692 0,-2.18788 -2e-5,-1.91914 0.38382,-3.14743 1.15152,-3.68486 l 7.48487,10.70912 7.94547,-12.32124" inkscape:connector-curvature="0" />
      <path id="blackletter-s" d="m 497.84458,927.7575 c -6e-5,-3.30098 -1.18996,-6.87068 -3.56971,-10.70912 -3.30106,-5.45047 -5.33541,-9.13532 -6.10304,-11.05457 l -17.50308,12.55155 -10.47881,-15.43034 c 0.9212,0.23036 3.10908,1.42026 6.56365,3.5697 3.301,1.91925 5.25857,2.87885 5.87275,2.8788 0.69088,5e-5 1.65047,0.0384 2.87879,0.11515 1.30502,0.0768 2.22623,0.1152 2.76364,0.11515 4.6828,5e-5 8.55958,-2.34137 11.63033,-7.02426 2.68683,-4.06863 4.03027,-8.06056 4.03032,-11.97578 -5e-5,-2.30297 -0.38389,-4.41408 -1.15152,-6.33335 -0.76773,-1.91912 -1.84248,-3.56963 -3.22425,-4.95153 -1.38187,-1.45851 -3.03237,-2.57164 -4.95153,-3.3394 -1.91923,-0.76759 -4.03035,-1.15143 -6.33335,-1.15152 -4.14549,9e-5 -7.79196,0.99807 -10.93942,2.99395 -3.45457,2.45665 -5.18185,5.6809 -5.18183,9.67275 -2e-5,0.46068 0.23029,1.07482 0.69091,1.84243 1.07473,-4.14539 1.99595,-6.83227 2.76365,-8.06063 0.84442,-1.45851 2.41816,-2.72518 4.72122,-3.80001 2.37977,-1.2282 4.49089,-1.84234 6.33335,-1.84243 4.22219,9e-5 7.75351,0.99807 10.59396,2.99395 3.07067,2.14958 4.60603,5.33544 4.60607,9.5576 -4e-5,1.15159 -0.69095,2.68694 -2.07273,4.60607 -1.38186,1.84249 -2.57176,2.76371 -3.5697,2.76364 l -5.18183,0 c -1.15156,7e-5 -3.03237,-0.88276 -5.64244,-2.64849 -1.53539,-1.07468 -2.76367,-1.91913 -3.68486,-2.53334 -0.84447,-0.69084 -1.38185,-1.11306 -1.61212,-1.26667 l -23.72127,22.33945 10.47881,16.2364 c -4.68285,6.06469 -7.02426,10.93944 -7.02426,14.62428 0,2.68689 0.92121,5.10507 2.76364,7.25456 1.91919,2.30304 4.0303,3.72325 6.33335,4.26062 1.22827,0.30707 2.30302,0.53738 3.22425,0.69091 0.9212,0.15354 1.68888,0.30707 2.30304,0.4606 2.30301,0.69092 3.5313,2.03436 3.68486,4.03032 0.0767,0 0.23028,0.0768 0.4606,0.2303 0.23028,0.0768 0.46059,0.11515 0.69091,0.11515 2.14948,0 7.21615,-2.6101 15.20004,-7.83032 3.83835,-2.61009 7.02421,-6.06465 9.5576,-10.36366 2.53328,-4.45251 3.79995,-8.98181 3.80001,-13.58791 m -15.20004,10.24851 c -4e-5,3.45457 -0.95963,7.06266 -2.87879,10.82427 -2.37984,4.68284 -5.52732,7.56163 -9.44245,8.63638 2.37977,-3.07071 3.56968,-6.52526 3.5697,-10.36366 -2e-5,-4.37575 -1.65053,-7.6 -4.95152,-9.67275 -0.0768,-0.0767 -2.34144,-0.80604 -6.79396,-2.18788 -2.84042,-0.76766 -4.26063,-2.22625 -4.26061,-4.37577 -2e-5,-0.76765 2.14948,-2.84038 6.4485,-6.2182 4.29897,-3.37775 6.87069,-5.06664 7.71517,-5.06668 3.60805,4e-5 6.44846,2.84045 8.52123,8.52124 1.38178,3.83842 2.07269,7.13943 2.07273,9.90305" inkscape:connector-curvature="0" />
      <path id="blackletter-t" d="m 570.26012,907.26048 0,-11.74548 -0.69091,0.57576 c -0.38388,-0.15347 -0.69095,-0.26863 -0.92122,-0.34546 -0.23034,-0.0767 -0.42225,-0.15347 -0.57576,-0.2303 -2.76367,6e-5 -4.3374,0.19198 -4.72122,0.57576 l -0.57575,-0.57576 -0.80606,0.57576 c -0.84447,-0.61408 -1.26671,-1.0363 -1.26667,-1.26667 l 2.18787,-21.99399 -24.98793,34.08493 c 0.23031,0.23035 0.34546,0.42227 0.34546,0.57576 0.38383,5e-5 0.99797,-0.0383 1.84243,-0.11516 0.92121,-0.0767 1.61212,-0.1151 2.07273,-0.11515 1.45858,0.30713 2.3798,0.8445 2.76364,1.61213 l 0,30.51522 c -10e-6,2.07275 -0.46061,3.83841 -1.38182,5.29698 -0.30708,0.53739 -1.42021,2.03436 -3.3394,4.49092 L 555.17523,960 l 15.08489,-15.31519 -0.69091,-0.69091 -4.03032,4.03031 c -0.5374,-0.23029 -1.11316,-0.53736 -1.72727,-0.92121 -0.53741,-0.46059 -1.0364,-0.95958 -1.49698,-1.49697 -0.46063,-0.61413 -0.84447,-1.22827 -1.15152,-1.84243 -0.30709,-0.61413 -0.46063,-1.1515 -0.4606,-1.61213 l 0.2303,-34.20008 0.69092,-0.69091 8.63639,0" inkscape:connector-curvature="0" />
      <text id="label-blackletter" x="30" y="990" style="font-size:36px;font-style:normal;font-weight:normal;text-align:start;line-height:121.00000381%;letter-spacing:0px;word-spacing:0px;text-anchor:start;fill:#000000;fill-opacity:1;stroke:none;font-family:Sans;-inkscape-font-specification:Sans" xml:space="preserve" sodipodi:linespacing="121%"><tspan
         id="span-blackletter" x="30" y="990" sodipodi:role="line">blackletter</tspan></text>
    </g>
  </g>
</svg>
